<svg id="freepik_stories-finance-app" data-name="freepik stories-finance-app" xmlns="http://www.w3.org/2000/svg" viewBox="0 0 474.23 438.92"><defs><style>.cls-1{fill:#f5f5f5;}.cls-2{fill:#e0e0e0;}.cls-3{fill:#263238;}.cls-4{fill:#455a64;}.cls-5{fill:#fff;}.cls-6{fill:none;}.cls-7{fill:#372d97;}.cls-8{opacity:0.3;}.cls-9{opacity:0.2;}.cls-10{fill:#ffbe9d;}.cls-11{fill:#eb996e;}.cls-12{fill:#fafafa;}</style></defs><title>aintro</title><g id="freepik--background-complete--inject-10"><path id="el6bp8fvxwokg" class="cls-1" d="M185.37,118.5A57.25,57.25,0,1,1,145,48.34l.11,0a57.19,57.19,0,0,1,40.29,70.13Z" transform="translate(-11.48 -32.1)"/><path id="elizslnmq0vte" class="cls-1" d="M173.59,115.91a43.63,43.63,0,1,1-30.8-53.47l.1,0A43.59,43.59,0,0,1,173.59,115.91Z" transform="translate(-11.48 -32.1)"/><path id="els1w8vm0wdyg" class="cls-2" d="M172.22,114.93a5.37,5.37,0,0,1,.11-.7c.09-.5.23-1.18.39-2,.09-.45.2-.94.31-1.49s.12-1.17.2-1.83a30.32,30.32,0,0,0,.28-4.57A41.54,41.54,0,0,0,171.84,92a43.29,43.29,0,0,0-45.31-31.34,44.36,44.36,0,0,0-6.08.91c-1,.23-2,.56-3,.84a21.11,21.11,0,0,0-3,1,48.16,48.16,0,0,0-5.82,2.73,47.27,47.27,0,0,0-5.39,3.71,41.67,41.67,0,0,0-9.08,9.84,46.35,46.35,0,0,0-5.72,12.54A45.64,45.64,0,0,0,87,105.9,41.55,41.55,0,0,0,89.89,119a47.77,47.77,0,0,0,2.78,5.93,47.71,47.71,0,0,0,3.64,5.29,43.32,43.32,0,0,0,63.94,4.4,41.42,41.42,0,0,0,7.71-9.85,31.37,31.37,0,0,0,2.07-4.09c.27-.6.54-1.15.75-1.67l.49-1.45.69-2a4.77,4.77,0,0,1,.26-.66,3.22,3.22,0,0,1-.17.68c-.15.49-.35,1.15-.6,2l-.46,1.47c-.19.53-.46,1.08-.71,1.7a31.16,31.16,0,0,1-2,4.16,41.43,41.43,0,0,1-7.66,10,43.87,43.87,0,0,1-55.81,4.45,44.89,44.89,0,0,1-4.89-3.92,44.18,44.18,0,0,1-4.32-4.75A41.1,41.1,0,0,1,89,119.3a42.21,42.21,0,0,1-2.9-13.3,46.86,46.86,0,0,1,1.44-14,46.84,46.84,0,0,1,5.84-12.81,42.83,42.83,0,0,1,9.28-10,49.2,49.2,0,0,1,5.51-3.77,48.53,48.53,0,0,1,5.94-2.77,21.38,21.38,0,0,1,3-1.06c1-.28,2-.62,3.07-.85a44.9,44.9,0,0,1,29,3.36,43.89,43.89,0,0,1,23.08,27.77,40.91,40.91,0,0,1,1.54,12.54,30.79,30.79,0,0,1-.37,4.6c-.09.66-.15,1.27-.25,1.83s-.24,1-.35,1.49l-.48,2A4.44,4.44,0,0,1,172.22,114.93Z" transform="translate(-11.48 -32.1)"/><path id="elil5shg93qxj" class="cls-2" d="M171.77,115.28c-.25-.06.07-2,.28-5.36a46.56,46.56,0,0,0-1.31-14.21,44.46,44.46,0,0,0-3.44-9.15,43.36,43.36,0,0,0-6.3-9.18,42.19,42.19,0,0,0-9.42-7.83,43.42,43.42,0,0,0-5.77-2.93,44.33,44.33,0,0,0-6.35-2.05,45.79,45.79,0,0,0-6.59-1,41.23,41.23,0,0,0-6.48,0,42.32,42.32,0,0,0-11.94,2.75,44.05,44.05,0,0,0-9.78,5.35,45.19,45.19,0,0,0-7.2,6.62,46.63,46.63,0,0,0-7.57,12.1c-1.36,3.14-1.92,5-2.18,4.91s0-2,1-5.36a40.87,40.87,0,0,1,7-13.15,44,44,0,0,1,30.46-16.47,43.06,43.06,0,0,1,7-.08,47.46,47.46,0,0,1,7.12,1.09,48.35,48.35,0,0,1,6.84,2.23,44,44,0,0,1,11.64,7.21,42,42,0,0,1,4.57,4.58,44.45,44.45,0,0,1,6.49,10A43.46,43.46,0,0,1,173,95.17a40.74,40.74,0,0,1,.31,14.89C172.72,113.53,172,115.33,171.77,115.28Z" transform="translate(-11.48 -32.1)"/><path id="elsugcg5z8l8" class="cls-2" d="M128.06,129.91l-1.89,7.36-6.57-1.69,1.84-7.16c-6.41-2.06-12.13-5.7-15-9.45l5.66-7.09a27.48,27.48,0,0,0,11.56,7.93l2.81-11c-6.84-3.64-14.37-8.16-12-17.56,1.78-7,8.38-11.66,19.06-10.18l1.87-7.3,6.6,1.71-1.84,7.16a30.7,30.7,0,0,1,12.32,7.43l-5.36,7.24a27.75,27.75,0,0,0-9.18-6l-2.86,11.17c6.86,3.58,14.25,8.07,11.88,17.34C145.21,126.66,138.7,131.3,128.06,129.91Zm.87-30.74,2.39-9.34c-3.69-.1-5.56,1.45-6.11,3.62S126.27,97.51,128.93,99.17Zm7.25,18.74c.59-2.31-1-4-3.57-5.75l-2.33,9.07C133.75,121.35,135.64,120,136.18,117.91Z" transform="translate(-11.48 -32.1)"/><path id="elof7sjydxcdn" class="cls-1" d="M99.59,203.49a38.41,38.41,0,1,1-49.53-22.31l.09,0A38.37,38.37,0,0,1,99.59,203.49Z" transform="translate(-11.48 -32.1)"/><path id="el5rt8meo42v8" class="cls-1" d="M92.17,206.71a29.27,29.27,0,1,1-37.75-17l.07,0A29.24,29.24,0,0,1,92.17,206.71Z" transform="translate(-11.48 -32.1)"/><path id="elvi5aak2j31j" class="cls-2" d="M91,206.71a2.1,2.1,0,0,1-.22-.42c-.14-.31-.34-.73-.58-1.27l-.42-.93c-.17-.33-.39-.68-.61-1.07a20.67,20.67,0,0,0-1.64-2.6,27.52,27.52,0,0,0-5.77-6.08A29.51,29.51,0,0,0,41.81,198c-.46.52-.87,1.09-1.31,1.64a12.29,12.29,0,0,0-1.21,1.74,31.39,31.39,0,0,0-2.1,3.76,33.27,33.27,0,0,0-1.48,4.13,28.8,28.8,0,0,0,5.35,26,27.93,27.93,0,0,0,6.69,6,32.71,32.71,0,0,0,3.84,2.14,33.51,33.51,0,0,0,4,1.45,26.5,26.5,0,0,0,8.25,1.1,29.12,29.12,0,0,0,14.68-4.17,28.78,28.78,0,0,0,9.54-9.34,29.4,29.4,0,0,0,4-10.3,27.72,27.72,0,0,0,.32-8.38,21.79,21.79,0,0,0-.48-3c-.09-.44-.15-.84-.25-1.21s-.2-.68-.29-1l-.4-1.33a3.43,3.43,0,0,1-.11-.46,2.35,2.35,0,0,1,.17.44l.46,1.32.32,1c.12.38.18.77.28,1.21a19.06,19.06,0,0,1,.54,3,27.59,27.59,0,0,1-.23,8.46,29.42,29.42,0,0,1-13.65,20,29,29,0,0,1-23.36,3.19,34,34,0,0,1-4.14-1.47,34.83,34.83,0,0,1-3.92-2.17,28.46,28.46,0,0,1-6.83-6.12,29,29,0,0,1-6.56-17.45A28.28,28.28,0,0,1,35,209a31.64,31.64,0,0,1,1.51-4.22A31.63,31.63,0,0,1,38.89,201a14.53,14.53,0,0,1,1.24-1.78c.45-.55.87-1.13,1.34-1.67a30.75,30.75,0,0,1,3-2.93A29.5,29.5,0,0,1,82,194a27.16,27.16,0,0,1,5.75,6.21,21,21,0,0,1,1.61,2.65c.21.4.42.75.58,1.09l.4,1c.22.55.4,1,.53,1.29A4.37,4.37,0,0,1,91,206.71Z" transform="translate(-11.48 -32.1)"/><path id="elgcxqtbgt2es" class="cls-2" d="M90.93,207.08c-.16.06-.73-1.09-2-3a31.66,31.66,0,0,0-6.29-7.22,30.15,30.15,0,0,0-5.47-3.62,29.14,29.14,0,0,0-7-2.52,28.53,28.53,0,0,0-8.19-.56,28.16,28.16,0,0,0-4.29.67,32,32,0,0,0-4.26,1.37,31.1,31.1,0,0,0-4,2,27.75,27.75,0,0,0-3.52,2.56,26.56,26.56,0,0,0-3,3A27.27,27.27,0,0,0,40.48,203a29.07,29.07,0,0,0-3.22,6.75A30.16,30.16,0,0,0,36,216.12a31.26,31.26,0,0,0,.63,9.55c.49,2.23.91,3.46.74,3.52s-.8-1.06-1.57-3.29a27.26,27.26,0,0,1-1.37-9.9,30.16,30.16,0,0,1,1.13-6.87,29.66,29.66,0,0,1,3.25-7.3,29.36,29.36,0,0,1,5.73-6.74,30.27,30.27,0,0,1,3.77-2.78,31.66,31.66,0,0,1,4.3-2.2,30.78,30.78,0,0,1,4.6-1.47,29.39,29.39,0,0,1,13.44,0,30.14,30.14,0,0,1,7.45,2.89,29,29,0,0,1,5.64,4.08,27.2,27.2,0,0,1,6,8C90.76,205.75,91.05,207,90.93,207.08Z" transform="translate(-11.48 -32.1)"/><path id="elozp6jnhsyui" class="cls-2" d="M72.89,232.19l1.87,4.74-4.24,1.66L68.71,234c-4.3,1.39-8.84,1.66-11.88.75l.29-6.08a18.53,18.53,0,0,0,9.41-.22l-2.78-7.08c-5.16.71-11,1.2-13.4-4.86-1.77-4.49,0-9.62,6.37-13l-1.84-4.7,4.23-1.66,1.82,4.62a20.47,20.47,0,0,1,9.61-.8l-.07,6a18.57,18.57,0,0,0-7.35.34l2.83,7.2c5.14-.75,10.92-1.21,13.27,4.76C81,223.69,79.23,228.77,72.89,232.19ZM61.3,215.12l-2.36-6c-2,1.39-2.46,3-1.91,4.37S59.2,215.26,61.3,215.12Zm11.3,7.35c-.58-1.48-2.13-1.8-4.2-1.72l2.3,5.84C72.63,225.3,73.13,223.83,72.6,222.47Z" transform="translate(-11.48 -32.1)"/><path id="el6wtaaeis5rq" class="cls-1" d="M476.93,289.53a38.36,38.36,0,0,1-22.44,49.38h0a39,39,0,0,1-6.52,1.83,38.33,38.33,0,1,1,29-51.21Z" transform="translate(-11.48 -32.1)"/><path id="elxfyor3yury9" class="cls-1" d="M469.5,292.75a29.26,29.26,0,1,1-37.74-17l.07,0A29.24,29.24,0,0,1,469.5,292.75Z" transform="translate(-11.48 -32.1)"/><path id="el8g15zl5yhv9" class="cls-2" d="M468.38,292.75a2.49,2.49,0,0,1-.22-.43c-.15-.31-.34-.72-.58-1.26l-.43-.93c-.17-.33-.39-.68-.6-1.07a21.41,21.41,0,0,0-1.64-2.6,28.5,28.5,0,0,0-5.77-6.09,29.09,29.09,0,0,0-36.95.73,30.85,30.85,0,0,0-2.95,2.88c-.46.53-.87,1.1-1.31,1.64a13.86,13.86,0,0,0-1.21,1.74,33.85,33.85,0,0,0-2.1,3.77,33.27,33.27,0,0,0-1.48,4.13,28,28,0,0,0-1.07,8.92,28.54,28.54,0,0,0,6.42,17.08,27.72,27.72,0,0,0,6.69,6A32.45,32.45,0,0,0,429,329.4a34.4,34.4,0,0,0,4.06,1.45,32.64,32.64,0,0,0,4.13.88,29.86,29.86,0,0,0,4.12.22,29.09,29.09,0,0,0,28.26-23.81,27.41,27.41,0,0,0,.33-8.38,21.79,21.79,0,0,0-.48-3c-.09-.44-.16-.85-.25-1.21l-.3-1c-.16-.56-.29-1-.39-1.33a3.43,3.43,0,0,1-.11-.46,3.34,3.34,0,0,1,.17.44l.45,1.32.33,1c.1.36.18.77.28,1.21a19.68,19.68,0,0,1,.54,3,27.59,27.59,0,0,1-.23,8.46,29.37,29.37,0,0,1-13.65,20,29,29,0,0,1-23.36,3.2,34,34,0,0,1-4.14-1.47,33.39,33.39,0,0,1-3.92-2.18,28.42,28.42,0,0,1-6.83-6.11,29,29,0,0,1-6.56-17.45,28.27,28.27,0,0,1,1.1-9.1,33.16,33.16,0,0,1,1.52-4.22,35.13,35.13,0,0,1,2.14-3.84,15.68,15.68,0,0,1,1.25-1.77c.45-.56.87-1.13,1.34-1.67a30.75,30.75,0,0,1,3-2.93,29.43,29.43,0,0,1,37.53-.56,27.16,27.16,0,0,1,5.75,6.21,21,21,0,0,1,1.61,2.65c.21.4.42.75.58,1.09l.4,1c.22.55.4,1,.53,1.29A3.79,3.79,0,0,1,468.38,292.75Z" transform="translate(-11.48 -32.1)"/><path id="elw9hvmtdcbhr" class="cls-2" d="M468.27,293.11c-.16.07-.73-1.09-2-3a31.38,31.38,0,0,0-6.28-7.22,29.35,29.35,0,0,0-12.47-6.14,28.53,28.53,0,0,0-8.19-.56,28.16,28.16,0,0,0-4.29.67,30.2,30.2,0,0,0-4.26,1.37,31.1,31.1,0,0,0-4,2,28.38,28.38,0,0,0-3.51,2.56,26.12,26.12,0,0,0-3,2.95,27.27,27.27,0,0,0-2.43,3.23,29.07,29.07,0,0,0-3.22,6.75,30,30,0,0,0-1.32,6.42,31.35,31.35,0,0,0,.63,9.56c.49,2.23.91,3.46.74,3.52s-.81-1.06-1.58-3.29a27.25,27.25,0,0,1-1.36-9.9,29.55,29.55,0,0,1,13.88-23.7,31.66,31.66,0,0,1,4.3-2.2,33.58,33.58,0,0,1,4.59-1.47,30.38,30.38,0,0,1,4.64-.69,30,30,0,0,1,8.81.74,29.28,29.28,0,0,1,13.09,7,27.51,27.51,0,0,1,6,8C468.1,291.79,468.39,293.07,468.27,293.11Z" transform="translate(-11.48 -32.1)"/><path id="elrii82lba0hd" class="cls-2" d="M450.23,318.23l1.86,4.74-4.23,1.66L446,320c-4.29,1.39-8.83,1.66-11.88.75l.3-6.08a18.49,18.49,0,0,0,9.4-.22L441,307.37c-5.15.7-11,1.2-13.4-4.86-1.76-4.49,0-9.63,6.38-13l-1.85-4.7,4.24-1.66,1.82,4.61a20.61,20.61,0,0,1,9.61-.79l-.07,6a18.58,18.58,0,0,0-7.35.35l2.83,7.2c5.14-.75,10.92-1.21,13.27,4.76C458.29,309.73,456.56,314.81,450.23,318.23Zm-11.59-17.07-2.37-6c-2,1.39-2.45,3-1.9,4.36S436.54,301.3,438.64,301.16Zm11.3,7.35c-.59-1.48-2.13-1.8-4.2-1.73l2.29,5.85C450,311.33,450.47,309.87,449.94,308.51Z" transform="translate(-11.48 -32.1)"/><polygon id="elujjgmo3nw9k" class="cls-2" points="0 438.65 130.86 205.08 344.44 187.3 389.08 67.72 429.89 91 369.95 234.05 168.74 251.83 61.52 438.9 0 438.65"/><polygon id="el0hw0ywcxx4hl" class="cls-2" points="346.83 72.93 438.79 0 460.95 115.24 346.83 72.93"/></g><g id="freepik--Floor--inject-10"><path id="elu5f702zx1c" class="cls-3" d="M465.64,470.76c0,.14-97.89.26-218.63.26s-218.65-.12-218.65-.26,97.87-.26,218.65-.26S465.64,470.62,465.64,470.76Z" transform="translate(-11.48 -32.1)"/></g><g id="freepik--Device--inject-10"><path id="elthu74fuompg" class="cls-4" d="M299.51,406.48l-121.89-.07a26.55,26.55,0,0,1-26.54-26.56l.06-305.59a26.55,26.55,0,0,1,26.55-26.55h0l121.89.07a26.56,26.56,0,0,1,26.54,26.56l-.06,305.6a26.54,26.54,0,0,1-26.54,26.54Z" transform="translate(-11.48 -32.1)"/><path id="eljz9zhulxiu" class="cls-5" d="M299.2,58.68H275.57a5.87,5.87,0,0,0-5.74,6h0V69a5.88,5.88,0,0,1-5.74,6H218a5.88,5.88,0,0,1-5.74-6V64.63a5.87,5.87,0,0,0-5.73-6h-29A18.61,18.61,0,0,0,158.94,77.2l-.06,298.29a18.6,18.6,0,0,0,18.59,18.6l121.65.07a18.61,18.61,0,0,0,18.61-18.59l.06-298.29A18.6,18.6,0,0,0,299.2,58.68Z" transform="translate(-11.48 -32.1)"/><path id="el3oy4dz5ggmq" class="cls-2" d="M317.79,111.2c0,.14-35.58.26-79.45.26s-79.46-.12-79.46-.26,35.57-.26,79.46-.26S317.79,111.06,317.79,111.2Z" transform="translate(-11.48 -32.1)"/><path id="elupmvh60nw5" class="cls-3" d="M217.8,157.3V159h-1v-1.7a6.08,6.08,0,0,1-3.68-1.32l.56-1.18A5.33,5.33,0,0,0,216.8,156V152.5c-1.66-.41-3.42-.94-3.42-3,0-1.5,1.08-2.81,3.42-3v-1.73h1v1.71a6.1,6.1,0,0,1,3.08.93l-.5,1.21a5.41,5.41,0,0,0-2.58-.85v3.53c1.7.43,3.52.93,3.52,3C221.32,155.8,220.2,157.1,217.8,157.3Zm-1-6.24v-3.27c-1.34.16-1.93.84-1.93,1.65s.87,1.33,2,1.62Zm3,3.33c0-1-.9-1.35-2-1.65V156c1.41-.14,2-.79,2-1.61Z" transform="translate(-11.48 -32.1)"/><path id="elv2q2t6qfjjp" class="cls-3" d="M230,146.59V157.2h-1.5v-9.29h-2.4v-1.32Z" transform="translate(-11.48 -32.1)"/><path id="elcc4g1ui9qqe" class="cls-3" d="M239.78,154c0,1.84-1.3,3.31-4,3.31a6.11,6.11,0,0,1-3.9-1.29l.7-1.2a4.75,4.75,0,0,0,3.18,1.14c1.61,0,2.52-.74,2.52-1.9s-.76-1.94-3.22-1.94h-2.41l.57-5.54h6v1.32h-4.71l-.29,2.91h1.18C238.54,150.82,239.78,152.13,239.78,154Z" transform="translate(-11.48 -32.1)"/><path id="elr6bn3n8jdqb" class="cls-3" d="M243,156.24a3.11,3.11,0,0,1-.26,1.09l-.71,2.11h-1l.56-2.26a1,1,0,0,1-.63-.94,1,1,0,0,1,2,0Z" transform="translate(-11.48 -32.1)"/><path id="el028qlgp2ewdn" class="cls-3" d="M251.91,154c0,1.84-1.3,3.31-4,3.31A6.08,6.08,0,0,1,244,156l.7-1.2a4.75,4.75,0,0,0,3.18,1.14c1.61,0,2.52-.74,2.52-1.9s-.76-1.94-3.21-1.94h-2.41l.56-5.54h6v1.32h-4.71l-.29,2.91h1.18C250.67,150.82,251.91,152.13,251.91,154Z" transform="translate(-11.48 -32.1)"/><path id="elc67inshhb86" class="cls-3" d="M261.06,151.76c0,3.62-2,5.56-5,5.56a5.17,5.17,0,0,1-2.64-.62l.57-1.19a3.7,3.7,0,0,0,2,.5c2.15,0,3.52-1.35,3.52-4v-.38a3.56,3.56,0,0,1-3.07,1.4c-2.1,0-3.62-1.26-3.62-3.21a3.48,3.48,0,0,1,3.75-3.35C259.45,146.47,261.06,148.38,261.06,151.76Zm-1.86-2c0-1.09-.88-2-2.53-2a2.11,2.11,0,0,0-2.33,1.85c0,.07,0,.15,0,.22,0,1.24.93,2,2.41,2a2.21,2.21,0,0,0,2.45-1.94s0-.07,0-.1Z" transform="translate(-11.48 -32.1)"/><path id="el0snk5ejo8d6" class="cls-3" d="M270.13,146.59v1l-4.28,9.58h-1.61l4.2-9.29h-4.85v1.89h-1.46v-3.21Z" transform="translate(-11.48 -32.1)"/><path id="el87xencl8qgs" d="M284.66,340.52h-1.27v1.25h-.58v-1.25h-1.27V340h1.27v-1.26h.58V340h1.27Z" transform="translate(-11.48 -32.1)"/><path id="elmklvxpwx3j" d="M286.86,337.8v4.88h-.7V338.4h-1.1v-.6Z" transform="translate(-11.48 -32.1)"/><path id="el47a6u8zsw6j" d="M287.92,340.24c0-1.59.85-2.5,2-2.5s2,.91,2,2.5-.85,2.49-2,2.49S287.92,341.83,287.92,340.24Zm3.29,0c0-1.25-.53-1.88-1.29-1.88s-1.3.63-1.3,1.88.53,1.87,1.3,1.87,1.29-.62,1.29-1.87Z" transform="translate(-11.48 -32.1)"/><path id="elimxf5rpw0ta" d="M292.58,340.24c0-1.59.85-2.5,2-2.5s2,.91,2,2.5-.85,2.49-2,2.49S292.58,341.83,292.58,340.24Zm3.28,0c0-1.25-.53-1.88-1.29-1.88s-1.29.63-1.29,1.88.53,1.87,1.29,1.87S295.86,341.49,295.86,340.24Z" transform="translate(-11.48 -32.1)"/><path id="el09a7376j1fie" d="M297.23,340.24c0-1.59.85-2.5,2-2.5s2,.91,2,2.5-.85,2.49-2,2.49S297.23,341.83,297.23,340.24Zm3.29,0c0-1.25-.54-1.88-1.29-1.88s-1.3.63-1.3,1.88.53,1.87,1.3,1.87,1.29-.62,1.29-1.87Z" transform="translate(-11.48 -32.1)"/><path id="elwpbieo6qemn" class="cls-1" d="M179.21,265.5H297.42a20.31,20.31,0,0,1,20.31,20.31v93.08a15.27,15.27,0,0,1-15.27,15.27H174.64a15.75,15.75,0,0,1-15.75-15.75h0v-92.6A20.31,20.31,0,0,1,179.2,265.5Z" transform="translate(-11.48 -32.1)"/><path id="elexw9k6mt2ju" class="cls-5" d="M250.6,277.47H232.86a1,1,0,0,1,0-2H250.6a1,1,0,1,1,0,2Z" transform="translate(-11.48 -32.1)"/><path id="elxc2a95dzt4e" class="cls-3" d="M226.82,304c0,.14-4.72.26-10.54.26s-10.54-.12-10.54-.26,4.72-.26,10.54-.26S226.82,303.86,226.82,304Z" transform="translate(-11.48 -32.1)"/><path id="el8w09b2sgjb7" class="cls-2" d="M226.82,315.12q-5.26.39-10.54.26-5.28.14-10.54-.26c0-.14,4.72-.26,10.54-.26S226.82,315,226.82,315.12Z" transform="translate(-11.48 -32.1)"/><path id="elw9b8rlbpwi" class="cls-2" d="M245.35,309.63c0,.15-8.87.26-19.81.26s-19.8-.11-19.8-.26,8.86-.26,19.8-.26S245.35,309.49,245.35,309.63Z" transform="translate(-11.48 -32.1)"/><path id="elzy46oc9w0dr" class="cls-3" d="M281.47,309.52h1.88v.58h-1.88Z" transform="translate(-11.48 -32.1)"/><path id="el0wgh2ec2xy4" class="cls-3" d="M288.37,310.53h-.92v1.2h-.68v-1.2h-2.71V310l2.49-3.19h.76l-2.39,3.08h1.87v-1.06h.66v1.06h.92Z" transform="translate(-11.48 -32.1)"/><path id="elt02dl1rdu8m" class="cls-3" d="M292.2,310.26c0,.85-.6,1.52-1.85,1.52a2.76,2.76,0,0,1-1.79-.59l.32-.55a2.18,2.18,0,0,0,1.46.52c.74,0,1.16-.34,1.16-.87s-.35-.89-1.48-.89h-1.11l.26-2.55h2.76v.6h-2.17l-.13,1.34h.54C291.63,308.79,292.2,309.4,292.2,310.26Z" transform="translate(-11.48 -32.1)"/><path id="eldvt1wyprs4o" class="cls-3" d="M292.77,311.29a.47.47,0,1,1,.47.48.47.47,0,0,1-.47-.48Z" transform="translate(-11.48 -32.1)"/><path id="elt1rhwdgvzm" class="cls-3" d="M298,309.22a2.25,2.25,0,0,1-1.92,2.54,2.55,2.55,0,0,1-.39,0,2.32,2.32,0,0,1-1.21-.28l.26-.55a1.63,1.63,0,0,0,.94.23c1,0,1.62-.62,1.62-1.84v-.17a1.61,1.61,0,0,1-1.41.64,1.51,1.51,0,0,1-1.66-1.34.66.66,0,0,1,0-.14,1.59,1.59,0,0,1,1.61-1.55H296C297.26,306.79,298,307.67,298,309.22Zm-.86-.92c0-.5-.41-.94-1.17-.94a1,1,0,0,0-1.07.93h0c0,.58.43.95,1.11.95a1,1,0,0,0,1.12-.86A.28.28,0,0,0,297.14,308.3Z" transform="translate(-11.48 -32.1)"/><path id="elnvsjdz106v9" class="cls-3" d="M298.67,309.29c0-1.59.85-2.5,2-2.5s2,.91,2,2.5-.85,2.49-2,2.49S298.67,310.88,298.67,309.29Zm3.28,0c0-1.25-.53-1.88-1.29-1.88s-1.29.63-1.29,1.88.53,1.87,1.29,1.87,1.34-.62,1.34-1.87Z" transform="translate(-11.48 -32.1)"/><path id="elmm5gmhhrjko" class="cls-6" d="M180.59,299.83a9.1,9.1,0,0,0-1.85,1.42,8.84,8.84,0,0,0-1.42,1.85,8.71,8.71,0,0,0-1.19,4.45,9,9,0,0,0,.3,2.31,8.88,8.88,0,0,0,2.31,4,9.1,9.1,0,0,0,1.85,1.42,8.94,8.94,0,0,0,4.46,1.2,8.5,8.5,0,0,0,2.3-.31,8.93,8.93,0,0,0,4-2.29h0a9.1,9.1,0,0,0,1.42-1.85,8.79,8.79,0,0,0,.89-2.15,9,9,0,0,0,.3-2.31,8.71,8.71,0,0,0-1.19-4.45,8.84,8.84,0,0,0-3.27-3.27,9,9,0,0,0-2.15-.89,8.5,8.5,0,0,0-2.3-.31,9.2,9.2,0,0,0-4.46,1.18Z" transform="translate(-11.48 -32.1)"/><path id="elvp6agvz343l" class="cls-7" d="M189.5,315.28a9,9,0,0,1-2.15.89,8.5,8.5,0,0,1-2.3.31,8.94,8.94,0,0,1-4.46-1.2,9.1,9.1,0,0,1-1.85-1.42,9,9,0,0,1-2.31-8.62,8.72,8.72,0,0,1,.89-2.14,8.84,8.84,0,0,1,1.42-1.85,9.1,9.1,0,0,1,1.85-1.42,8.94,8.94,0,0,1,4.46-1.2v-1.75a10.8,10.8,0,0,0-2.77.36,10.58,10.58,0,0,0-2.58,1.07,11.06,11.06,0,0,0-2.21,1.69,10.91,10.91,0,0,0-2.76,4.79,10.8,10.8,0,0,0,0,5.53,10.91,10.91,0,0,0,2.76,4.79,11.36,11.36,0,0,0,2.21,1.69,10.58,10.58,0,0,0,2.58,1.07,10.8,10.8,0,0,0,5.53,0,10.35,10.35,0,0,0,2.57-1.07,10.54,10.54,0,0,0,2.19-1.68l-1.24-1.24A9.25,9.25,0,0,1,189.5,315.28Z" transform="translate(-11.48 -32.1)"/><path id="elhrz1f5jb07d" class="cls-5" d="M195.36,304.79a10.35,10.35,0,0,0-1.07-2.57A10.77,10.77,0,0,0,192.6,300a10.91,10.91,0,0,0-4.79-2.76,10.72,10.72,0,0,0-2.76-.36v1.75a8.5,8.5,0,0,1,2.3.31,9,9,0,0,1,2.15.89,8.84,8.84,0,0,1,3.27,3.27,8.71,8.71,0,0,1,1.19,4.45,9,9,0,0,1-.3,2.31,8.79,8.79,0,0,1-.89,2.15,9.1,9.1,0,0,1-1.42,1.85h0l1.24,1.24h0a10.77,10.77,0,0,0,1.69-2.22,10.35,10.35,0,0,0,1.07-2.57,10.8,10.8,0,0,0,0-5.53Z" transform="translate(-11.48 -32.1)"/><path id="elaoy7zxxzdu" class="cls-3" d="M183.33,308.69a1,1,0,0,1-1.05.94c-.82,0-1.26-.56-1.26-1.54a1.41,1.41,0,0,1,1.41-1.59,1.43,1.43,0,0,1,.73.17l-.13.25a1.13,1.13,0,0,0-.6-.14c-.66,0-1.09.42-1.09,1.26v.25a1,1,0,0,1,.94-.53.92.92,0,0,1,1,.8A.57.57,0,0,1,183.33,308.69Zm-.31,0a.68.68,0,0,0-.68-.68h-.09a.73.73,0,0,0-.8.63v0c0,.34.29.66.82.66a.68.68,0,0,0,.73-.61v0Z" transform="translate(-11.48 -32.1)"/><path id="elcx9f62mc974" class="cls-3" d="M185.79,308.7c0,.52-.36.93-1.12.93a1.63,1.63,0,0,1-1.1-.39l.15-.25a1.38,1.38,0,0,0,.95.35c.52,0,.8-.25.8-.63s-.25-.64-1-.64h-.66l.16-1.54h1.69v.28h-1.41l-.11,1h.4C185.44,307.79,185.79,308.15,185.79,308.7Z" transform="translate(-11.48 -32.1)"/><path id="ell4bjhepftp" class="cls-3" d="M186.1,307.34a.73.73,0,0,1,.63-.83h.07c.41,0,.69.33.69.84s-.28.84-.69.84a.75.75,0,0,1-.71-.77S186.1,307.36,186.1,307.34Zm1.17,0c0-.4-.18-.64-.47-.64s-.48.24-.48.64.19.64.48.64S187.27,307.74,187.27,307.34Zm1.39-.81h.26l-2.1,3.08h-.26Zm-.67,2.26a.72.72,0,0,1,.62-.82h.08c.41,0,.69.33.69.83s-.28.84-.69.84a.74.74,0,0,1-.7-.78.13.13,0,0,0,0-.06Zm1.17,0c0-.39-.18-.64-.47-.64s-.48.24-.48.64.19.64.48.64S189.16,309.19,189.16,308.79Z" transform="translate(-11.48 -32.1)"/><path id="elda04859etes" class="cls-3" d="M226.82,335q-5.26.39-10.54.26-5.28.14-10.54-.26c0-.14,4.72-.26,10.54-.26S226.82,334.81,226.82,335Z" transform="translate(-11.48 -32.1)"/><path id="elmcx8ui2xydp" class="cls-2" d="M226.82,346.07q-5.26.39-10.54.26-5.28.14-10.54-.26c0-.14,4.72-.26,10.54-.26S226.82,345.93,226.82,346.07Z" transform="translate(-11.48 -32.1)"/><path id="el5cmhy1eacyb" class="cls-2" d="M245.35,340.58c0,.15-8.87.26-19.81.26s-19.8-.11-19.8-.26,8.86-.26,19.8-.26S245.35,340.44,245.35,340.58Z" transform="translate(-11.48 -32.1)"/><path id="el9nljowk62k7" class="cls-3" d="M284.66,340.52h-1.27v1.25h-.58v-1.25h-1.27V340h1.27v-1.26h.58V340h1.27Z" transform="translate(-11.48 -32.1)"/><path id="elb2yvthfsge4" class="cls-3" d="M286.85,337.8v4.88h-.69V338.4h-1.1v-.6Z" transform="translate(-11.48 -32.1)"/><path id="eltt2di19j2j" class="cls-3" d="M287.92,340.24c0-1.59.85-2.5,2-2.5s2,.91,2,2.5-.85,2.49-2,2.49S287.92,341.83,287.92,340.24Zm3.29,0c0-1.25-.53-1.88-1.29-1.88s-1.3.63-1.3,1.88.53,1.87,1.3,1.87,1.29-.62,1.29-1.87Z" transform="translate(-11.48 -32.1)"/><path id="elcdd35pzsk4g" class="cls-3" d="M292.58,340.24c0-1.59.85-2.5,2-2.5s2,.91,2,2.5-.85,2.49-2,2.49S292.58,341.83,292.58,340.24Zm3.28,0c0-1.25-.53-1.88-1.29-1.88s-1.3.63-1.3,1.88.53,1.87,1.3,1.87S295.86,341.49,295.86,340.24Z" transform="translate(-11.48 -32.1)"/><path id="eldlrtajywfp" class="cls-3" d="M297.23,340.24c0-1.59.85-2.5,2-2.5s2,.91,2,2.5-.85,2.49-2,2.49S297.23,341.83,297.23,340.24Zm3.28,0c0-1.25-.53-1.88-1.29-1.88s-1.29.63-1.29,1.88.53,1.87,1.29,1.87S300.51,341.49,300.51,340.24Z" transform="translate(-11.48 -32.1)"/><path id="elwogruizsnec" class="cls-6" d="M179.11,330.78a9.78,9.78,0,0,0-1.85,1.42,8.79,8.79,0,0,0-1.41,1.85,8.81,8.81,0,0,0,0,8.91,8.79,8.79,0,0,0,1.41,1.85,9.78,9.78,0,0,0,1.85,1.42,9,9,0,0,0,2.15.89,8.83,8.83,0,0,0,4.62,0,9,9,0,0,0,2.15-.89,9.19,9.19,0,0,0,1.82-1.4h0a8.84,8.84,0,0,0,1.42-1.85,8.81,8.81,0,0,0,0-8.91,8.88,8.88,0,0,0-5.41-4.16,8.83,8.83,0,0,0-4.62,0A9.17,9.17,0,0,0,179.11,330.78Z" transform="translate(-11.48 -32.1)"/><path id="elnossl52vn2" class="cls-5" d="M188,346.23a9,9,0,0,1-2.15.89,8.83,8.83,0,0,1-4.62,0,9,9,0,0,1-2.15-.89,9.78,9.78,0,0,1-1.85-1.42,8.79,8.79,0,0,1-1.41-1.85,8.81,8.81,0,0,1,0-8.91,8.79,8.79,0,0,1,1.41-1.85,9.78,9.78,0,0,1,1.85-1.42,9,9,0,0,1,2.15-.89,8.58,8.58,0,0,1,2.31-.31v-1.75a10.72,10.72,0,0,0-2.76.36,10.42,10.42,0,0,0-2.58,1.07A10.61,10.61,0,0,0,176,331a10.81,10.81,0,0,0-1.7,2.22,10.65,10.65,0,0,0,0,10.67,10.7,10.7,0,0,0,6.49,5,10.76,10.76,0,0,0,5.52,0,10.63,10.63,0,0,0,4.77-2.75l-1.25-1.24A8.66,8.66,0,0,1,188,346.23Z" transform="translate(-11.48 -32.1)"/><path id="elnch0q0l643i" class="cls-7" d="M193.88,335.74a10.62,10.62,0,0,0-2.76-4.79,11.36,11.36,0,0,0-2.21-1.69,10.42,10.42,0,0,0-2.58-1.07,10.72,10.72,0,0,0-2.76-.36v1.75a8.58,8.58,0,0,1,2.31.31,8.88,8.88,0,0,1,5.41,4.16,8.81,8.81,0,0,1,0,8.91,8.84,8.84,0,0,1-1.42,1.85h0l1.25,1.24h0a10.72,10.72,0,0,0,2.76-10.32Z" transform="translate(-11.48 -32.1)"/><path id="ely0n43dhalck" class="cls-3" d="M226.82,365.9q-5.26.39-10.54.26-5.28.13-10.54-.26c0-.14,4.72-.26,10.54-.26S226.82,365.76,226.82,365.9Z" transform="translate(-11.48 -32.1)"/><path id="elyisnyh3ezv" class="cls-2" d="M226.82,377q-5.26.39-10.54.26-5.28.14-10.54-.26c0-.14,4.72-.26,10.54-.26S226.82,376.88,226.82,377Z" transform="translate(-11.48 -32.1)"/><path id="elbcvujlcyh7w" class="cls-2" d="M245.35,371.53c0,.15-8.87.26-19.81.26s-19.8-.11-19.8-.26,8.86-.26,19.8-.26S245.35,371.39,245.35,371.53Z" transform="translate(-11.48 -32.1)"/><path id="elzj9llyj7sa" class="cls-3" d="M281.47,371.43h1.87V372h-1.87Z" transform="translate(-11.48 -32.1)"/><path id="elzkxrnam640s" class="cls-3" d="M287.5,372.17c0,.84-.6,1.52-1.85,1.52a2.82,2.82,0,0,1-1.79-.6l.32-.55a2.2,2.2,0,0,0,1.47.53c.74,0,1.15-.35,1.15-.88s-.34-.89-1.47-.89h-1.11l.26-2.55h2.75v.61h-2.17l-.13,1.33h.54C286.93,370.69,287.5,371.3,287.5,372.17Z" transform="translate(-11.48 -32.1)"/><path id="elx0znkc6njcd" class="cls-3" d="M291.86,372.14a1.58,1.58,0,0,1-1.6,1.56h-.13c-1.31,0-2.05-.88-2.05-2.44a2.25,2.25,0,0,1,1.92-2.54,2.55,2.55,0,0,1,.39,0,2.24,2.24,0,0,1,1.21.29l-.26.54a1.82,1.82,0,0,0-.94-.23c-1,0-1.62.62-1.62,1.84a.54.54,0,0,0,0,.18,1.59,1.59,0,0,1,1.4-.64,1.5,1.5,0,0,1,1.67,1.31A.86.86,0,0,1,291.86,372.14Zm-.67,0c0-.57-.44-.94-1.12-.94a1,1,0,0,0-1.11.87.22.22,0,0,0,0,.08c0,.5.4.94,1.16.94a1,1,0,0,0,1.08-.91h0Z" transform="translate(-11.48 -32.1)"/><path id="el1ixq4ihjxh2" class="cls-3" d="M292.44,373.19a.47.47,0,0,1,.47-.47h0a.45.45,0,0,1,.46.44v0a.47.47,0,0,1-.44.48h0a.47.47,0,0,1-.48-.46Z" transform="translate(-11.48 -32.1)"/><path id="els9dykracg" class="cls-3" d="M297.67,371.13a2.25,2.25,0,0,1-1.92,2.54,2.36,2.36,0,0,1-.38,0,2.25,2.25,0,0,1-1.22-.29l.27-.54a1.82,1.82,0,0,0,.94.23c1,0,1.62-.62,1.62-1.84v-.18a1.61,1.61,0,0,1-1.41.64,1.51,1.51,0,0,1-1.66-1.34.66.66,0,0,1,0-.14,1.57,1.57,0,0,1,1.59-1.55h.13C296.94,368.69,297.67,369.57,297.67,371.13Zm-.85-.93c0-.5-.41-.94-1.17-.94a1,1,0,0,0-1.07.93v0c0,.57.42.94,1.11.94a1,1,0,0,0,1.12-.86A.28.28,0,0,0,296.82,370.2Z" transform="translate(-11.48 -32.1)"/><path id="elqph9bkryyh" class="cls-3" d="M298.35,371.19c0-1.59.85-2.5,2-2.5s2,.91,2,2.5-.85,2.5-2,2.5S298.35,372.78,298.35,371.19Zm3.28,0c0-1.25-.53-1.88-1.29-1.88s-1.3.63-1.3,1.88.53,1.88,1.3,1.88S301.63,372.44,301.63,371.19Z" transform="translate(-11.48 -32.1)"/><path id="elgrj9ltns6zi" class="cls-6" d="M180.59,361.73a9.1,9.1,0,0,0-1.85,1.42,8.84,8.84,0,0,0-1.42,1.85,8.87,8.87,0,0,0-1.19,4.45,9.12,9.12,0,0,0,.3,2.32,8.81,8.81,0,0,0,2.31,4,9.1,9.1,0,0,0,1.85,1.42,8.94,8.94,0,0,0,4.46,1.2,8.5,8.5,0,0,0,2.3-.31,8.93,8.93,0,0,0,4-2.29h0a9.41,9.41,0,0,0,1.42-1.84,9,9,0,0,0,.89-2.15,9.12,9.12,0,0,0,.3-2.32,8.9,8.9,0,0,0-8.91-8.91,9.12,9.12,0,0,0-2.32.3A8.67,8.67,0,0,0,180.59,361.73Z" transform="translate(-11.48 -32.1)"/><path id="elxrs6sgo1rcq" class="cls-7" d="M189.5,377.18a9,9,0,0,1-2.15.89,8.5,8.5,0,0,1-2.3.31,8.94,8.94,0,0,1-4.46-1.2,9,9,0,0,1-3.27-3.26,9,9,0,0,1-.89-2.15,9.12,9.12,0,0,1-.3-2.32,8.9,8.9,0,0,1,2.61-6.3,9.1,9.1,0,0,1,1.85-1.42,8.72,8.72,0,0,1,2.14-.89,9.12,9.12,0,0,1,2.32-.3v-1.76a10.8,10.8,0,0,0-2.77.36,10.58,10.58,0,0,0-2.58,1.07,11.36,11.36,0,0,0-2.21,1.69,10.91,10.91,0,0,0-2.76,4.79,10.8,10.8,0,0,0,0,5.53,10.58,10.58,0,0,0,1.07,2.58,10.37,10.37,0,0,0,1.69,2.21,11.06,11.06,0,0,0,2.21,1.69A10.65,10.65,0,0,0,192.57,377l-1.24-1.24A9.25,9.25,0,0,1,189.5,377.18Z" transform="translate(-11.48 -32.1)"/><path id="elntzlzeicbep" class="cls-5" d="M195.36,366.69a10.35,10.35,0,0,0-1.07-2.57,10.48,10.48,0,0,0-3.91-3.91,10.35,10.35,0,0,0-2.57-1.07,10.72,10.72,0,0,0-2.76-.36v1.76a8.9,8.9,0,0,1,8.91,8.91,9.12,9.12,0,0,1-.3,2.32,9,9,0,0,1-.89,2.15,9.41,9.41,0,0,1-1.42,1.84h0l1.24,1.24h0a11.36,11.36,0,0,0,1.69-2.21,10.58,10.58,0,0,0,1.07-2.58,10.8,10.8,0,0,0,0-5.53Z" transform="translate(-11.48 -32.1)"/><path id="elwkdc8icgye" class="cls-3" d="M183.33,370.59a1,1,0,0,1-1.05.94c-.82,0-1.26-.56-1.26-1.54a1.41,1.41,0,0,1,1.41-1.59,1.43,1.43,0,0,1,.73.17l-.13.25a1.13,1.13,0,0,0-.6-.14c-.66,0-1.09.42-1.09,1.26v.25a1,1,0,0,1,.94-.53.92.92,0,0,1,1,.8A.57.57,0,0,1,183.33,370.59Zm-.31,0a.68.68,0,0,0-.68-.68h-.09a.68.68,0,1,0-.23,1.34h.23a.68.68,0,0,0,.75-.59v-.07Z" transform="translate(-11.48 -32.1)"/><path id="elp16l2ymtnzr" class="cls-3" d="M185.79,370.6c0,.52-.36.93-1.12.93a1.63,1.63,0,0,1-1.1-.39l.15-.25a1.38,1.38,0,0,0,.95.35c.52,0,.8-.25.8-.63s-.25-.64-1-.64h-.66l.16-1.54h1.69v.28h-1.41l-.11,1h.4C185.44,369.69,185.79,370.06,185.79,370.6Z" transform="translate(-11.48 -32.1)"/><path id="elwqx8m36caoe" class="cls-3" d="M186.1,369.24a.73.73,0,0,1,.63-.83h.07c.41,0,.69.34.69.84s-.28.84-.69.84a.75.75,0,0,1-.71-.77S186.1,369.26,186.1,369.24Zm1.17,0c0-.4-.18-.64-.47-.64s-.48.25-.48.64.19.64.48.64S187.27,369.64,187.27,369.24Zm1.39-.81h.26l-2.1,3.08h-.26Zm-.67,2.26a.72.72,0,0,1,.62-.82h.08c.41,0,.69.33.69.83s-.28.84-.69.84-.69-.33-.69-.84Zm1.17,0c0-.39-.18-.63-.47-.63s-.48.23-.48.63.19.64.48.64S189.16,371.09,189.16,370.69Z" transform="translate(-11.48 -32.1)"/><rect id="elufqfkg1mvm" class="cls-7" x="210.2" y="142.99" width="45.9" height="18.22" rx="3.13"/><path id="eln3telu4sfn" class="cls-5" d="M233,187.06v.9h-.51v-.9a3.29,3.29,0,0,1-2-.7l.3-.63a2.69,2.69,0,0,0,1.65.64v-1.86c-.88-.22-1.81-.5-1.81-1.59,0-.79.57-1.48,1.81-1.59v-.91H233v.9a3.34,3.34,0,0,1,1.63.49l-.26.65A2.8,2.8,0,0,0,233,182v1.87c.9.22,1.87.49,1.87,1.59C234.89,186.26,234.29,187,233,187.06Zm-.51-3.31V182c-.71.09-1,.45-1,.88s.44.72,1,.87Zm1.59,1.76c0-.51-.48-.71-1.08-.87v1.72c.77-.07,1.1-.36,1.1-.85Z" transform="translate(-11.48 -32.1)"/><path id="elhzk5cxrh9d" class="cls-5" d="M241.6,185.35c0,.94-.7,1.71-2.13,1.71a3.2,3.2,0,0,1-2.06-.68l.37-.63a2.54,2.54,0,0,0,1.69.6c.85,0,1.33-.39,1.33-1s-.43-1-1.39-1H239v-.56l1.41-1.73h-2.7v-.7h3.71v.55L240,183.72A1.64,1.64,0,0,1,241.6,185.35Z" transform="translate(-11.48 -32.1)"/><path id="eln22n8hu000c" class="cls-5" d="M243.41,186.49a1.65,1.65,0,0,1-.14.58l-.38,1.12h-.5l.29-1.2a.51.51,0,0,1-.33-.5.53.53,0,0,1,1.06,0Z" transform="translate(-11.48 -32.1)"/><path id="elk2w54yhptz" class="cls-5" d="M248.35,184.12c0,1.92-1.08,2.94-2.66,2.94a2.6,2.6,0,0,1-1.39-.33l.3-.62a2,2,0,0,0,1.08.26c1.14,0,1.87-.71,1.87-2.12v-.2a1.89,1.89,0,0,1-1.62.74,1.72,1.72,0,0,1-1.91-1.51,1.21,1.21,0,0,1,0-.19,1.81,1.81,0,0,1,1.84-1.78H246C247.5,181.32,248.35,182.33,248.35,184.12Zm-1-1.07c0-.58-.46-1.08-1.34-1.08a1.1,1.1,0,0,0-1.22,1,.57.57,0,0,0,0,.13c0,.66.48,1.08,1.27,1.08a1.17,1.17,0,0,0,1.3-1,.17.17,0,0,0,0-.07Z" transform="translate(-11.48 -32.1)"/><path id="elpi7iho2u3we" class="cls-5" d="M249.12,184.19c0-1.83,1-2.87,2.29-2.87s2.29,1,2.29,2.87-1,2.87-2.29,2.87S249.12,186,249.12,184.19Zm3.78,0c0-1.44-.61-2.16-1.49-2.16s-1.49.72-1.49,2.16.61,2.16,1.49,2.16S252.9,185.63,252.9,184.19Z" transform="translate(-11.48 -32.1)"/><path id="elod8kegci9q" class="cls-5" d="M258.39,186.3v.7h-4v-.55l2.28-2.2c.6-.58.71-.94.71-1.29,0-.58-.41-.93-1.2-.93a1.73,1.73,0,0,0-1.43.61l-.55-.47a2.59,2.59,0,0,1,2.06-.85c1.17,0,1.92.6,1.92,1.56a2.29,2.29,0,0,1-.92,1.77l-1.72,1.65Z" transform="translate(-11.48 -32.1)"/><path id="elofq0nofljpp" class="cls-7" d="M158.91,234.88v-1a89.49,89.49,0,0,0,48.66-16.61c1.39-1,2.8-2.08,4.16-3.12,6.29-4.78,12.78-9.73,20.57-10.5,5.67-.57,12,1.19,18.81,5.23,2.82,1.67,5.54,3.59,8.17,5.44s5.37,3.78,8.18,5.44c12.91,7.62,36.83,10.23,50.25,7.8l.18,1c-13.58,2.46-37.84-.18-50.94-7.92-2.84-1.68-5.59-3.61-8.24-5.48s-5.33-3.75-8.11-5.4c-6.63-3.92-12.75-5.64-18.2-5.1-7.51.75-13.89,5.61-20.06,10.3-1.37,1-2.79,2.13-4.19,3.14A90.5,90.5,0,0,1,158.91,234.88Z" transform="translate(-11.48 -32.1)"/><path id="eltahzjzj954q" class="cls-7" d="M244.7,209.56a3.44,3.44,0,1,1,3.44-3.44,3.44,3.44,0,0,1-3.44,3.44Zm0-5.88a2.44,2.44,0,1,0,2.44,2.44,2.44,2.44,0,0,0-2.44-2.44Z" transform="translate(-11.48 -32.1)"/><circle id="elgsllyx04u0k" class="cls-7" cx="233.19" cy="174.02" r="1.47"/><path id="eluc9phmrtuwp" class="cls-4" d="M245.19,243.31a18.32,18.32,0,0,1-11.57-3.94c-1.42-1.15-3-2.59-4.91-4.25-6.64-5.92-15.74-14-24.69-16.59-9.11-2.61-17.51,1-25.63,4.42-6.3,2.69-12.81,5.48-19.52,5.22v-1c6.48.24,12.61-2.38,19.09-5.14,8.28-3.53,16.84-7.18,26.29-4.46,9.17,2.64,18.37,10.82,25.09,16.8,1.86,1.65,3.46,3.08,4.87,4.22,6.67,5.41,17.62,4.73,24.42-1.52,3-2.75,6.6-7.32,10.43-12.15,4.62-5.84,9.4-11.88,13.35-15,10.36-8.14,23.93-7.67,32.91-7.35,1.58,0,3.07.1,4.36.1v1c-1.31,0-2.81,0-4.39-.11-8.84-.3-22.19-.77-32.26,7.15-3.86,3-8.6,9-13.19,14.82-3.85,4.87-7.49,9.47-10.53,12.27A21.08,21.08,0,0,1,245.19,243.31Z" transform="translate(-11.48 -32.1)"/><polygon id="elxgj1ydpd0es" class="cls-7" points="234.66 166.43 240.03 161.06 227.81 161.06 234.66 166.43"/><path id="el92223oxas9l" class="cls-2" d="M288.45,288.86c0,.14-19.81.26-44.24.26S200,289,200,288.86s19.81-.26,44.25-.26S288.45,288.71,288.45,288.86Z" transform="translate(-11.48 -32.1)"/><g id="elzxdrcr6he1"><circle class="cls-5" cx="169.01" cy="63.02" r="7.49"/></g><path id="eleeskw7m469u" class="cls-3" d="M180.49,103.11a8,8,0,1,1,8-8A8,8,0,0,1,180.49,103.11Zm0-15a7,7,0,1,0,7,7,7,7,0,0,0-7-7Z" transform="translate(-11.48 -32.1)"/><path id="elwyxs9sd0aqa" class="cls-3" d="M180.9,98v1h-.68V98a3.59,3.59,0,0,1-2-.68l.37-.83a3,3,0,0,0,1.64.62V95.5c-.91-.22-1.89-.52-1.89-1.66,0-.84.61-1.57,1.89-1.7v-.93h.68v.92a3.42,3.42,0,0,1,1.67.5l-.34.83A3.2,3.2,0,0,0,180.9,93v1.66c.91.22,1.91.51,1.91,1.65C182.81,97.17,182.19,97.89,180.9,98Zm-.68-3.52V93c-.58.09-.83.39-.83.75s.36.61.83.75Zm1.53,1.9c0-.4-.36-.59-.85-.73v1.46c.6-.11.85-.35.85-.71Z" transform="translate(-11.48 -32.1)"/><path id="elx6jg6acii4" class="cls-3" d="M302.78,99.69a1.38,1.38,0,1,1-1.38-1.38,1.38,1.38,0,0,1,1.38,1.38Z" transform="translate(-11.48 -32.1)"/><path id="elkrw0iwqhqys" class="cls-3" d="M302.78,95.61a1.38,1.38,0,1,1-1.38-1.38,1.38,1.38,0,0,1,1.38,1.38Z" transform="translate(-11.48 -32.1)"/><path id="elooefroum82s" class="cls-3" d="M302.78,91.53a1.38,1.38,0,1,1-1.38-1.38,1.38,1.38,0,0,1,1.38,1.38Z" transform="translate(-11.48 -32.1)"/><path id="elzo4csc6cbqf" class="cls-3" d="M182.37,339.31c0,.49-.36.89-1.1.89a1.63,1.63,0,0,1-1.06-.35l.19-.33a1.26,1.26,0,0,0,.87.31c.43,0,.68-.2.68-.51s-.22-.51-.71-.51H181v-.29l.72-.89h-1.39v-.36h1.91v.28l-.76.94C182.07,338.54,182.37,338.87,182.37,339.31Z" transform="translate(-11.48 -32.1)"/><path id="elfsopw4kjfwf" class="cls-3" d="M184.74,339.3c0,.5-.36.9-1.1.9a1.63,1.63,0,0,1-1.06-.35l.19-.33a1.36,1.36,0,0,0,.87.31c.44,0,.69-.2.69-.52s-.21-.53-.88-.53h-.66l.16-1.51h1.63v.36h-1.29l-.08.79h.33C184.4,338.42,184.74,338.78,184.74,339.3Z" transform="translate(-11.48 -32.1)"/><path id="eludjdbmbmbaf" class="cls-3" d="M185,338c0-.48.27-.79.67-.79s.67.31.67.79a.68.68,0,1,1-1.34.23A.88.88,0,0,1,185,338Zm1.08,0c0-.35-.16-.56-.41-.56s-.4.21-.4.56.15.55.4.55S186.08,338.38,186.08,338Zm1.34-.77h.32l-2,2.9h-.32Zm-.59,2.13a.68.68,0,1,1,.67.79.7.7,0,0,1-.67-.73v-.06Zm1.08,0c0-.34-.16-.55-.41-.55s-.4.2-.4.55.15.55.4.55.41-.17.41-.51Z" transform="translate(-11.48 -32.1)"/></g><g id="freepik--piggy-bank--inject-10"><polygon id="el2nigrckcjs" class="cls-4" points="81.67 416.65 91.68 438.76 96.52 438.76 97.21 437.08 98.07 438.76 101.24 438.76 100.87 425.85 100.71 418.23 81.67 416.65"/><g id="el6h8c3lj48pn"><g class="cls-8"><polygon id="elulhw64cpkuq" points="81.67 416.65 91.68 438.76 96.52 438.76 97.21 437.08 98.07 438.76 101.24 438.76 100.87 425.85 100.71 418.23 81.67 416.65"/></g></g><polygon id="elvupfqjb71oa" class="cls-4" points="125.5 419.02 135.27 438.76 140.1 438.76 140.8 437.22 141.65 438.76 144.83 438.76 144.46 426.95 144.3 419.96 125.5 419.02"/><g id="el3x4i41jf218"><g class="cls-8"><polygon id="ela2op3idp34" points="125.5 419.02 135.27 438.76 140.1 438.76 140.8 437.22 141.65 438.76 144.83 438.76 144.46 426.95 144.3 419.96 125.5 419.02"/></g></g><path id="el5e6u5c93lri" class="cls-4" d="M187.76,412.93c1.45,32.82-26.06,49.19-57.2,49.19S74.18,440.8,74.18,414.5s25.24-47.62,56.38-47.62S186.59,386.66,187.76,412.93Z" transform="translate(-11.48 -32.1)"/><g id="elnk5hq1yp9wp"><g class="cls-8"><path id="elf5di68sja1u" d="M126.63,378.64s3.74-1.19,7.24,2.77,8.37,10.69,8.37,10.69A6.45,6.45,0,0,1,138,397Z" transform="translate(-11.48 -32.1)"/></g></g><ellipse id="elcxzwh2hy889" class="cls-4" cx="82" cy="401.72" rx="19.31" ry="14.8"/><path id="el5ufdlzr6kla" class="cls-4" d="M111.49,394.27s11.32-17.56,16.5-15.65S138,397,138,397" transform="translate(-11.48 -32.1)"/><path id="eles7h5yjkgbh" class="cls-4" d="M98.69,390.25l-.52-4.76a97.19,97.19,0,0,0-13.43-4.41c-6.35-1.45-7.6,0-7.6,0l10,14.06Z" transform="translate(-11.48 -32.1)"/><g id="elywllr2wew1"><g class="cls-8"><path id="elnpr9lu2dysd" d="M113.8,373.41l3.75,2.23s18.19-4.81,32.15,0l-5.12-4.36S127.64,367.64,113.8,373.41Z" transform="translate(-11.48 -32.1)"/></g></g><g id="el007yzip4aw96"><g class="cls-8"><ellipse id="elb92ywxns4x" cx="82" cy="401.72" rx="19.31" ry="14.8"/></g></g><ellipse id="elf2mm7yu4rq8" class="cls-4" cx="77.1" cy="401.72" rx="18.09" ry="14.8"/><g id="el80qhgdgg9rj"><g class="cls-8"><rect id="elndqz772gce" x="68.21" y="394.78" width="3.87" height="13.88" rx="1.81"/></g></g><g id="elequ6xoacjav"><g class="cls-8"><rect id="elvm0kpfkvq2" x="78.61" y="394.78" width="3.87" height="13.88" rx="1.81"/></g></g><g id="el7z2cjs1ec39"><g class="cls-8"><path id="elpfpueyskbob" d="M97.6,390.71a3.61,3.61,0,0,0,1.88-4.55,106.45,106.45,0,0,0-14.74-5.08c-6.35-1.45-7.6,0-7.6,0l10,14.06Z" transform="translate(-11.48 -32.1)"/></g></g><path id="eltl2bb3kj7g" class="cls-4" d="M98.17,391.1l-1.27-.85c-3.74-2.5-14.68-9.65-17.45-9.73-3.81-.11-3.81,3.17-3.81,5.71,0,1.8,1.48,17.45,1.48,17.45" transform="translate(-11.48 -32.1)"/><path id="eljmbjfmfw5h8" class="cls-3" d="M138,397v-.11l-.11-.32c-.1-.3-.24-.71-.41-1.24-.37-1.08-.91-2.63-1.66-4.53a59.41,59.41,0,0,0-3-6.48,23.4,23.4,0,0,0-2.3-3.52,8.18,8.18,0,0,0-1.57-1.54,3,3,0,0,0-2.06-.7,5.17,5.17,0,0,0-2.12.74,13.34,13.34,0,0,0-1.82,1.25,31,31,0,0,0-3.06,2.89c-1.83,2-3.34,3.86-4.58,5.47s-2.18,3-2.83,3.89l-.75,1.08-.2.28-.07.09.06-.1.18-.29c.16-.26.4-.63.71-1.1.64-.95,1.57-2.3,2.79-3.93a70.5,70.5,0,0,1,4.56-5.51,30.17,30.17,0,0,1,3.07-2.91,13,13,0,0,1,1.85-1.28,5.36,5.36,0,0,1,2.19-.76,2.49,2.49,0,0,1,1.18.16,4.74,4.74,0,0,1,1,.58,8.5,8.5,0,0,1,1.6,1.57,22.21,22.21,0,0,1,2.3,3.55,56,56,0,0,1,2.94,6.52c.73,1.9,1.25,3.47,1.6,4.55.17.54.3,1,.38,1.26l.09.32Z" transform="translate(-11.48 -32.1)"/><path id="elurp01u1bsf" class="cls-3" d="M144.58,371.28l.09.06.26.21,1,.83,3.61,3.06.23.2-.3-.08a55.56,55.56,0,0,0-6.63-1.45,57.28,57.28,0,0,0-8.27-.67,59.31,59.31,0,0,0-16.86,2.26h0L114.8,374l-.75-.45-.19-.12h0l.2.1.77.43,2.88,1.63h0a55.52,55.52,0,0,1,7.2-1.63c1.44-.24,3-.41,4.61-.56a46.73,46.73,0,0,1,5.08-.16,55.14,55.14,0,0,1,14.94,2.18l-.06.12-3.57-3.1-1-.86-.25-.22Z" transform="translate(-11.48 -32.1)"/><g id="el1jdlma5o0tgh"><g class="cls-9"><path id="elwb5rv7bf98" class="cls-5" d="M123.67,420c-.09.53-.64.93-1.41,1.2a10.94,10.94,0,0,1-5.79.06c-.78-.25-1.33-.63-1.43-1.16s.3-1.09,1.08-1.55a6.66,6.66,0,0,1,3.21-.79,6.53,6.53,0,0,1,3.22.72C123.34,419,123.75,419.51,123.67,420Z" transform="translate(-11.48 -32.1)"/></g></g><path id="el41wpgw2fgmv" class="cls-3" d="M99.37,422l-.11-.07-.3-.2-.48-.32-.7-.39A16.6,16.6,0,0,0,93,419.34a24,24,0,0,0-3.49-.32,25.46,25.46,0,0,0-4,.29A20.35,20.35,0,0,0,77,422.62a17,17,0,0,0-1.87,1.52,15.17,15.17,0,0,0-3.74,5.57,13.35,13.35,0,0,0-.47,7.38,11.93,11.93,0,0,0,1,2.71,12.11,12.11,0,0,0,1.19,1.82l.51.61.42.41.25.25.08.09-.09-.07-.27-.25-.43-.39-.53-.6a10.71,10.71,0,0,1-1.22-1.82,12.08,12.08,0,0,1-1-2.73,13.39,13.39,0,0,1,.43-7.47,14.53,14.53,0,0,1,.93-2A15.08,15.08,0,0,1,75,424a17.4,17.4,0,0,1,1.89-1.54,20.47,20.47,0,0,1,8.58-3.32,23.26,23.26,0,0,1,4-.28,22.93,22.93,0,0,1,3.5.35,15.64,15.64,0,0,1,4.79,1.69c.26.15.49.28.69.41l.47.34.29.22Z" transform="translate(-11.48 -32.1)"/><path id="el4yxqbstwcat" class="cls-3" d="M83.45,428.18a2.91,2.91,0,0,1,0,.59,13.93,13.93,0,0,0,.07,1.61c0,1.37.16,3.24.21,5.32v1.52a7.59,7.59,0,0,1-.11,1.43,2.69,2.69,0,0,1-1.31,2,1.59,1.59,0,0,1-1.59-.08,1,1,0,0,1-.32-.32.61.61,0,0,1-.07-.14,1.77,1.77,0,0,0,.43.39,1.52,1.52,0,0,0,1.49,0,2.56,2.56,0,0,0,1.2-1.89,8.17,8.17,0,0,0,.09-1.4V435.7c0-2.08-.14-4-.16-5.32v-1.62A3.83,3.83,0,0,1,83.45,428.18Z" transform="translate(-11.48 -32.1)"/><path id="elb4925ao15ag" class="cls-3" d="M93.71,428.18a2.91,2.91,0,0,1,0,.59,13.93,13.93,0,0,0,.07,1.61c.06,1.37.17,3.24.22,5.32v1.52a7.59,7.59,0,0,1-.11,1.43,2.72,2.72,0,0,1-1.31,2,1.61,1.61,0,0,1-1.6-.08,1.22,1.22,0,0,1-.32-.32c0-.08-.07-.13-.06-.14a1.31,1.31,0,0,0,.42.39,1.52,1.52,0,0,0,1.49,0,2.56,2.56,0,0,0,1.2-1.89,8.17,8.17,0,0,0,.1-1.4V435.7c0-2.08-.14-4-.17-5.32v-1.62A2.79,2.79,0,0,1,93.71,428.18Z" transform="translate(-11.48 -32.1)"/><path id="elmqb8b6pww9i" class="cls-3" d="M106.45,437.05a2.41,2.41,0,0,1-.08.25c-.07.16-.14.41-.28.72a14.81,14.81,0,0,1-1.35,2.47,17.85,17.85,0,0,1-2.75,3.14,19.28,19.28,0,0,1-1.94,1.54,20.94,20.94,0,0,1-7,3.09,19.29,19.29,0,0,1-4.15.42c-1.19,0-2.15-.07-2.81-.12l-.77-.06H86c.66,0,1.62.06,2.81.05A19.62,19.62,0,0,0,93,448.1a21.22,21.22,0,0,0,4.76-1.74A21.84,21.84,0,0,0,99.94,445a20,20,0,0,0,1.93-1.51,18.37,18.37,0,0,0,2.75-3.09A15.87,15.87,0,0,0,106,438c.15-.3.24-.54.31-.7S106.44,437,106.45,437.05Z" transform="translate(-11.48 -32.1)"/><path id="elv19ps8f26" class="cls-5" d="M83.23,427.77c-.08-.13-.16-.25-.25-.37a1.54,1.54,0,0,0-1.06-.48,2.08,2.08,0,0,0-2,1.61,4.85,4.85,0,0,0-.11,1.14V435a3.38,3.38,0,0,1,0,.45,1.7,1.7,0,0,1,0-.45v-1.24c0-1.05,0-2.49-.07-4.09a4.68,4.68,0,0,1,.12-1.18,2.26,2.26,0,0,1,.53-1,2.15,2.15,0,0,1,1.7-.71,1.54,1.54,0,0,1,1.11.56,1.11,1.11,0,0,1,.17.3A.54.54,0,0,1,83.23,427.77Z" transform="translate(-11.48 -32.1)"/><path id="el7mjh5vfnumu" class="cls-5" d="M90,428.63s.09,1.95.09,4.36a37.87,37.87,0,0,1-.09,4.37,36.32,36.32,0,0,1-.1-4.37C89.9,430.57,90,428.63,90,428.63Z" transform="translate(-11.48 -32.1)"/><path id="elsyzmzvluiss" class="cls-5" d="M86.91,420.2H86a17,17,0,0,0-2.37.26,15.73,15.73,0,0,0-12.45,11.82c-.08.27-.11.49-.15.63a.79.79,0,0,1-.06.22.81.81,0,0,1,0-.22,1.64,1.64,0,0,1,.11-.65,14.24,14.24,0,0,1,.68-2.31,15.29,15.29,0,0,1,11.82-9.62,12.89,12.89,0,0,1,2.4-.2h.66Z" transform="translate(-11.48 -32.1)"/><path id="elzd5z84asto" class="cls-5" d="M77.21,401.3a.56.56,0,0,1-.06.21l-.23.59c-.11.25-.23.57-.36.93s-.29.78-.43,1.25-.32,1-.47,1.53-.3,1.15-.45,1.77a35.89,35.89,0,0,0-.87,8.34,13.41,13.41,0,0,0,.08,1.83c.08.57.09,1.11.14,1.6s.12.92.17,1.3.1.72.15,1l.11.62a.81.81,0,0,1,0,.22.83.83,0,0,1-.06-.21l-.14-.62c-.06-.26-.13-.59-.19-1s-.14-.82-.2-1.31-.12-1-.16-1.59-.07-1.2-.1-1.84a34.19,34.19,0,0,1,.88-8.39c.15-.63.3-1.23.47-1.78s.33-1.06.49-1.53.32-.87.46-1.24.27-.67.39-.92.19-.42.26-.57Z" transform="translate(-11.48 -32.1)"/><path id="el2i445g4cj15" class="cls-5" d="M77.77,382s-.15.2-.38.59a6,6,0,0,0-.62,1.78,17.64,17.64,0,0,0-.22,2.81v3.47c.06,2.46.26,4.68.44,6.28l.24,1.89a1.17,1.17,0,0,0,.07.52c.07.14,0,.18,0,.18v-.17l-.1-.51c-.08-.45-.19-1.09-.3-1.89a57.71,57.71,0,0,1-.5-6.3v-3.48a14.91,14.91,0,0,1,.27-2.83,5.5,5.5,0,0,1,.69-1.79,3.25,3.25,0,0,1,.31-.42Z" transform="translate(-11.48 -32.1)"/><path id="elfv9prfl3p2" class="cls-5" d="M113.88,370.39l-.24.09-.68.25-2.55.87a86.92,86.92,0,0,0-8.24,3.24,38.57,38.57,0,0,0-7.56,4.58,24.5,24.5,0,0,0-2,1.76c-.23.21-.4.39-.52.5l-.2.17.17-.2c.11-.12.27-.31.5-.53a22.72,22.72,0,0,1,2-1.8,35.83,35.83,0,0,1,7.56-4.65,74.12,74.12,0,0,1,8.28-3.2c1.08-.35,1.95-.63,2.56-.81l.7-.21A.79.79,0,0,1,113.88,370.39Z" transform="translate(-11.48 -32.1)"/><path id="elyde6umuyb1" class="cls-5" d="M126.79,379.59l-.16.13-.5.35c-.43.29-1,.74-1.79,1.3s-1.62,1.27-2.56,2.08-1.92,1.75-2.92,2.77-1.88,2.06-2.66,3-1.45,1.86-2,2.63A21.92,21.92,0,0,0,113,393.7l-.33.51-.12.17a.37.37,0,0,1,.09-.19l.3-.53c.26-.46.66-1.1,1.19-1.88a32.9,32.9,0,0,1,2-2.67c.82-1,1.67-2,2.67-3s2-2,2.94-2.78,1.82-1.5,2.59-2.05,1.39-1,1.83-1.25l.52-.32Z" transform="translate(-11.48 -32.1)"/><path id="elrdivtnuumni" class="cls-5" d="M184,405.4a4.4,4.4,0,0,1,.44.93,18.33,18.33,0,0,1,.77,2.38,20.33,20.33,0,0,1,.46,2.45,5.6,5.6,0,0,1,.06,1,6.81,6.81,0,0,1-.2-1c-.11-.62-.27-1.49-.51-2.42s-.5-1.78-.71-2.38A7.68,7.68,0,0,1,184,405.4Z" transform="translate(-11.48 -32.1)"/><path id="elf57qmnic9eb" class="cls-3" d="M175.1,447.93l-.19.13-.54.39-.89.63-.57.4-.67.43a74.21,74.21,0,0,1-8.22,4.7q-1.35.64-2.85,1.32l-1.54.66-.79.33-.81.31-1.68.65-1.75.6c-.59.21-1.2.4-1.82.58s-1.23.4-1.87.57a77.64,77.64,0,0,1-8.1,1.82,69.34,69.34,0,0,1-8.86.95,58.94,58.94,0,0,1-8.91-.28l-1-.12a6,6,0,0,1-1-.15l-2.08-.29-2-.38-1-.18-1-.22a72.07,72.07,0,0,1-13.35-4.35A56.78,56.78,0,0,1,95.15,452,24.14,24.14,0,0,1,93,450.54l-.54-.4-.18-.14.19.13.55.38c.49.32,1.18.85,2.14,1.43a58.49,58.49,0,0,0,8.36,4.41,72.78,72.78,0,0,0,13.34,4.29l1,.22,1,.19,2,.37,2.07.29,1,.14,1.07.1a61.25,61.25,0,0,0,8.88.28,69,69,0,0,0,8.84-1,77.24,77.24,0,0,0,8.08-1.81c.64-.16,1.26-.37,1.87-.55s1.23-.37,1.82-.58l1.74-.6,1.68-.64.81-.31.8-.33,1.53-.64c1-.45,1.95-.88,2.85-1.32a78.36,78.36,0,0,0,8.24-4.64c.24-.14.46-.29.67-.42l.58-.39.9-.61.55-.37Z" transform="translate(-11.48 -32.1)"/><polygon id="elph0tgkfy859" class="cls-4" points="147.64 419.8 155.09 438.86 160.19 438.86 161.3 437.21 162.61 438.86 164.41 438.86 165.08 408.65 147.64 419.8"/><path id="el091tejc7rzee" class="cls-4" d="M112.28,454.58l6.3,16.38h5.79l1.18-1.89L126.7,471h1.43s.63-18.48,0-19S112.28,454.58,112.28,454.58Z" transform="translate(-11.48 -32.1)"/><path id="elr55r18foctb" class="cls-5" d="M185.9,418v.43c0,.29-.06.7-.11,1.22,0,.27-.06.57-.09.89s-.11.67-.17,1c-.13.75-.24,1.61-.48,2.53-.11.46-.22.95-.34,1.46s-.3,1-.46,1.56c-.29,1.08-.73,2.2-1.17,3.39a44.06,44.06,0,0,1-8.7,13.82c-.88.91-1.7,1.79-2.55,2.52-.42.38-.81.76-1.21,1.09l-1.17.94c-.73.61-1.46,1.08-2.07,1.52l-.87.61-.76.46-1.05.63-.28.16h-.1l.09-.07.27-.17,1-.67.75-.47c.27-.18.55-.4.86-.61a25,25,0,0,0,2-1.55l1.16-.95c.4-.33.78-.71,1.2-1.09.84-.73,1.65-1.61,2.53-2.52a45.11,45.11,0,0,0,8.67-13.77c.44-1.18.88-2.29,1.18-3.37.16-.54.34-1.05.46-1.55s.24-1,.36-1.45c.25-.92.36-1.77.5-2.52.07-.37.14-.71.19-1s.07-.61.1-.88c.07-.51.12-.92.15-1.21v-.32C185.79,418,185.89,418,185.9,418Z" transform="translate(-11.48 -32.1)"/><g id="el808oq2r7trj"><g class="cls-9"><path id="elvsrnk86ncc" class="cls-5" d="M177.83,401.88a18.53,18.53,0,0,0-9.65-9.89,5.52,5.52,0,0,0-7.16,3.1,5.36,5.36,0,0,0-.38,1.72v.08a14.79,14.79,0,0,0,2.21,7.65,65.57,65.57,0,0,1,3.85,7.09,18,18,0,0,1,.15,13c-1,2.64-2.64,5.46-1.15,8.09a5.05,5.05,0,0,0,4.93,2.4c3.79-.35,5.75-3.77,7.55-6.88a22.11,22.11,0,0,0,2.7-9.32A41.26,41.26,0,0,0,177.83,401.88Z" transform="translate(-11.48 -32.1)"/></g></g><g id="elhpxy10bwyo7"><g class="cls-9"><path id="elufwbrb3wk9" class="cls-5" d="M163.64,391.06h0Z" transform="translate(-11.48 -32.1)"/></g></g><path id="elqt61ms3duo" class="cls-3" d="M92.23,411.46a2.67,2.67,0,1,1-2.68-2.66h0A2.67,2.67,0,0,1,92.23,411.46Z" transform="translate(-11.48 -32.1)"/><path id="elg70b0mcah7f" class="cls-3" d="M118.79,411.46a2.67,2.67,0,1,1-2.68-2.66h0A2.67,2.67,0,0,1,118.79,411.46Z" transform="translate(-11.48 -32.1)"/><path id="eldb5zbq5b9cu" class="cls-5" d="M177,389.15a2,2,0,0,1-.19-.2l-.49-.6c-.22-.26-.48-.58-.8-.94s-.66-.78-1.08-1.22-.85-.93-1.35-1.43-1-1-1.61-1.59c-1.17-1.09-2.5-2.24-3.95-3.37s-2.91-2.11-4.26-3c-.68-.42-1.32-.82-1.94-1.16s-1.2-.67-1.73-.95-1-.52-1.46-.73l-1.11-.53-.7-.33c-.16-.08-.25-.12-.24-.13l.25.09.72.3c.32.13.7.29,1.13.5s.93.43,1.47.71,1.13.58,1.75.93l2,1.15a49.19,49.19,0,0,1,4.28,3c1.47,1.16,2.78,2.29,3.95,3.39.57.56,1.12,1.08,1.6,1.61s1,1,1.35,1.45.75.87,1.06,1.24a11.58,11.58,0,0,1,.76,1c.2.3.36.46.47.62A1.3,1.3,0,0,1,177,389.15Z" transform="translate(-11.48 -32.1)"/><path id="elppz0n429sbl" class="cls-5" d="M148.91,377.16l-.29-.08-.81-.28c-.36-.13-.79-.28-1.3-.43s-1.08-.35-1.73-.51l-1-.26c-.35-.09-.73-.17-1.11-.25-.76-.19-1.59-.32-2.46-.48a49.68,49.68,0,0,0-5.71-.54,47.82,47.82,0,0,0-5.74.22c-.87.1-1.71.19-2.48.32-.39.07-.77.12-1.12.19l-1,.21c-.66.12-1.24.28-1.76.41s-1,.24-1.31.35l-.83.23-.29.07a1.36,1.36,0,0,1,.28-.11L121,376c.35-.12.79-.26,1.31-.39s1.09-.3,1.75-.43l1-.23,1.12-.19c.78-.15,1.61-.24,2.49-.35a42.07,42.07,0,0,1,11.5.33c.87.16,1.7.3,2.47.49l1.11.26,1,.28c.65.17,1.22.38,1.73.54s.93.32,1.28.46l.8.31Z" transform="translate(-11.48 -32.1)"/><path id="eltlr3vy0am9i" class="cls-3" d="M176.13,445.59a2.39,2.39,0,0,1,.13-.21l.43-.6c.39-.52,1-1.29,1.67-2.29a58.12,58.12,0,0,0,5.23-9,45.38,45.38,0,0,0,3.93-14.82,42.1,42.1,0,0,0-2.62-18.5,44.45,44.45,0,0,0-10.19-15.69,57.38,57.38,0,0,0-12.24-9.29,69.63,69.63,0,0,0-9.4-4.46c-1.15-.45-2-.75-2.67-1l-.7-.23-.23-.09a.53.53,0,0,1,.25,0l.71.18c.63.18,1.55.45,2.71.87a62.22,62.22,0,0,1,9.51,4.33,56.14,56.14,0,0,1,12.4,9.27A44.4,44.4,0,0,1,185.38,400,42.11,42.11,0,0,1,188,418.73a44.34,44.34,0,0,1-4.07,14.92,54.28,54.28,0,0,1-5.39,9c-.74,1-1.34,1.73-1.75,2.23l-.48.57C176.2,445.54,176.14,445.6,176.13,445.59Z" transform="translate(-11.48 -32.1)"/></g><g id="freepik--Character--inject-10"><path id="elyckmn9xi6km" class="cls-7" d="M319.11,419a38.36,38.36,0,0,1-22.46,49.38,39.54,39.54,0,0,1-6.51,1.82,38.32,38.32,0,1,1,29-51.2Z" transform="translate(-11.48 -32.1)"/><path id="el67tze395v1r" class="cls-7" d="M311.68,422.25a29.26,29.26,0,1,1-37.74-17l.07,0A29.24,29.24,0,0,1,311.68,422.25Z" transform="translate(-11.48 -32.1)"/><path id="elu3e2fmwl9q8" class="cls-3" d="M310.55,422.25a2.74,2.74,0,0,1-.21-.42c-.15-.31-.34-.73-.59-1.26q-.18-.42-.42-.93c-.17-.34-.39-.69-.61-1.08a20.55,20.55,0,0,0-1.64-2.59,27.57,27.57,0,0,0-5.77-6.09,29,29,0,0,0-36.94.73,29.7,29.7,0,0,0-2.95,2.88c-.46.52-.87,1.09-1.31,1.64a15.08,15.08,0,0,0-1.22,1.74,36.32,36.32,0,0,0-2.09,3.76,34,34,0,0,0-1.48,4.14,27.94,27.94,0,0,0-1.08,8.91,28.73,28.73,0,0,0,6.43,17.09,28.29,28.29,0,0,0,6.68,6,34.15,34.15,0,0,0,3.84,2.13,32.7,32.7,0,0,0,4.06,1.45,26.39,26.39,0,0,0,8.24,1.1,29.09,29.09,0,0,0,28.27-23.8,28.05,28.05,0,0,0,.33-8.38,21.79,21.79,0,0,0-.48-3c-.09-.43-.16-.84-.25-1.2l-.3-1c-.16-.56-.29-1-.39-1.33a3.59,3.59,0,0,1-.12-.47,3.38,3.38,0,0,1,.18.44l.45,1.32.33,1c.1.36.18.77.28,1.2a19.68,19.68,0,0,1,.54,3,27.65,27.65,0,0,1-.23,8.47,29.49,29.49,0,0,1-13.66,20,30,30,0,0,1-19.14,4.08,31.79,31.79,0,0,1-4.21-.88,34,34,0,0,1-4.14-1.48A33.32,33.32,0,0,1,267,457.3a28.46,28.46,0,0,1-6.83-6.12,31.19,31.19,0,0,1-4.72-8.18,31.56,31.56,0,0,1-1.85-9.26,28.85,28.85,0,0,1,1.11-9.1,27.2,27.2,0,0,1,3.66-8.06,17,17,0,0,1,1.24-1.77c.45-.56.88-1.14,1.34-1.67a30.75,30.75,0,0,1,3-2.93,29.41,29.41,0,0,1,37.53-.57,27.87,27.87,0,0,1,5.75,6.22,19.85,19.85,0,0,1,1.6,2.65c.22.39.43.75.59,1.09s.28.66.4.95l.52,1.29A3,3,0,0,1,310.55,422.25Z" transform="translate(-11.48 -32.1)"/><g id="elv3lc65m1f8o"><g class="cls-8"><path id="ela2gma3fhhnf" d="M310.45,422.62c-.16.07-.73-1.09-2-3a31,31,0,0,0-6.29-7.22,28.93,28.93,0,0,0-12.46-6.14,28.64,28.64,0,0,0-8.2-.58,28.16,28.16,0,0,0-4.29.67,30.2,30.2,0,0,0-4.26,1.37,31.1,31.1,0,0,0-4,2,29.17,29.17,0,0,0-3.52,2.55,26.56,26.56,0,0,0-3,3,27.16,27.16,0,0,0-2.43,3.22,29.07,29.07,0,0,0-3.22,6.75,30,30,0,0,0-1.32,6.43,31.26,31.26,0,0,0,.63,9.55c.49,2.24.9,3.46.74,3.53s-.81-1.06-1.58-3.3a27.23,27.23,0,0,1-1.36-9.89,29.1,29.1,0,0,1,1.13-6.87,29.73,29.73,0,0,1,3.25-7.31,26.63,26.63,0,0,1,2.55-3.51,28.72,28.72,0,0,1,6.95-6,31.09,31.09,0,0,1,4.3-2.2,33.58,33.58,0,0,1,4.59-1.47,28.09,28.09,0,0,1,4.64-.69,27.35,27.35,0,0,1,8.8.7,29.65,29.65,0,0,1,7.46,2.88,30.57,30.57,0,0,1,5.64,4.08,27.51,27.51,0,0,1,6,8C310.27,421.3,310.57,422.57,310.45,422.62Z" transform="translate(-11.48 -32.1)"/></g></g><g id="elppk85kjk4dq"><g class="cls-8"><path id="el7udxbt1b6bm" d="M292.41,447.73l1.86,4.75L290,454.14l-1.81-4.62c-4.29,1.39-8.83,1.66-11.88.76l.3-6.09A18.34,18.34,0,0,0,286,444l-2.78-7.07c-5.15.7-11,1.2-13.4-4.86-1.76-4.49,0-9.63,6.38-13l-1.85-4.7,4.24-1.67,1.81,4.62a20.65,20.65,0,0,1,9.62-.79l-.07,6a18.57,18.57,0,0,0-7.35.34l2.83,7.2c5.13-.74,10.92-1.2,13.26,4.77C300.46,439.24,298.74,444.31,292.41,447.73Zm-11.59-17.06-2.37-6c-2,1.39-2.45,3-1.9,4.37S278.72,430.81,280.82,430.67ZM292.11,438c-.58-1.49-2.12-1.81-4.2-1.73l2.3,5.85C292.15,440.84,292.65,439.37,292.11,438Z" transform="translate(-11.48 -32.1)"/></g></g><rect id="el6tvnqwxyjs4" class="cls-7" x="289.7" y="329.13" width="85.19" height="15.47"/><path id="elskwd4pa248l" class="cls-3" d="M309.52,376.81c-.19,0-.35-3.44-.35-7.67s.16-7.68.35-7.68.36,3.44.36,7.68S309.72,376.81,309.52,376.81Z" transform="translate(-11.48 -32.1)"/><path id="elu2rxcyud5d" class="cls-3" d="M304.86,376.81c-.19,0-.35-3.44-.35-7.67s.16-7.68.35-7.68.36,3.44.36,7.68S305.06,376.81,304.86,376.81Z" transform="translate(-11.48 -32.1)"/><path id="elbxm1fmpmm4v" class="cls-3" d="M319.76,376.81c-.2,0-.36-3.44-.36-7.67s.16-7.68.36-7.68.35,3.44.35,7.68S320,376.81,319.76,376.81Z" transform="translate(-11.48 -32.1)"/><path id="el208owqnhvg4" class="cls-3" d="M315.1,376.81c-.2,0-.35-3.44-.35-7.67s.15-7.68.35-7.68.35,3.44.35,7.68S315.3,376.81,315.1,376.81Z" transform="translate(-11.48 -32.1)"/><path id="elpg9eb73bry" class="cls-3" d="M330,376.81c-.19,0-.35-3.44-.35-7.67s.16-7.68.35-7.68.36,3.44.36,7.68S330.19,376.81,330,376.81Z" transform="translate(-11.48 -32.1)"/><path id="ellfrsqwvtnzo" class="cls-3" d="M325.34,376.81c-.2,0-.36-3.44-.36-7.67s.16-7.68.36-7.68.35,3.44.35,7.68S325.53,376.81,325.34,376.81Z" transform="translate(-11.48 -32.1)"/><path id="el04gsfe0ho56v" class="cls-3" d="M340.23,376.81c-.2,0-.35-3.44-.35-7.67s.15-7.68.35-7.68.36,3.44.36,7.68S340.43,376.81,340.23,376.81Z" transform="translate(-11.48 -32.1)"/><path id="elj5isi8wllqc" class="cls-3" d="M335.57,376.81c-.19,0-.35-3.44-.35-7.67s.16-7.68.35-7.68.36,3.44.36,7.68S335.77,376.81,335.57,376.81Z" transform="translate(-11.48 -32.1)"/><path id="elcot2hr8m4pd" class="cls-3" d="M350.47,376.81c-.2,0-.36-3.44-.36-7.67s.16-7.68.36-7.68.35,3.44.35,7.68S350.66,376.81,350.47,376.81Z" transform="translate(-11.48 -32.1)"/><path id="el2j5w7ftt0dr" class="cls-3" d="M345.81,376.81c-.2,0-.36-3.44-.36-7.67s.16-7.68.36-7.68.35,3.44.35,7.68S346,376.81,345.81,376.81Z" transform="translate(-11.48 -32.1)"/><path id="ell34jeqmatdr" class="cls-3" d="M360.7,376.81c-.19,0-.35-3.44-.35-7.67s.16-7.68.35-7.68.36,3.44.36,7.68S360.9,376.81,360.7,376.81Z" transform="translate(-11.48 -32.1)"/><path id="elbz803em4jub" class="cls-3" d="M356,376.81c-.19,0-.35-3.44-.35-7.67s.16-7.68.35-7.68.36,3.44.36,7.68S356.24,376.81,356,376.81Z" transform="translate(-11.48 -32.1)"/><path id="elplrq9qozfcm" class="cls-3" d="M370.94,376.81c-.2,0-.36-3.44-.36-7.67s.16-7.68.36-7.68.35,3.44.35,7.68S371.13,376.81,370.94,376.81Z" transform="translate(-11.48 -32.1)"/><path id="elcltgwlaaxwn" class="cls-3" d="M366.28,376.81c-.2,0-.36-3.44-.36-7.67s.16-7.68.36-7.68.35,3.44.35,7.68S366.47,376.81,366.28,376.81Z" transform="translate(-11.48 -32.1)"/><path id="ellu7pitpa9zc" class="cls-3" d="M381.17,376.81c-.19,0-.35-3.44-.35-7.67s.16-7.68.35-7.68.36,3.44.36,7.68S381.37,376.81,381.17,376.81Z" transform="translate(-11.48 -32.1)"/><path id="elt6t17cn88fs" class="cls-3" d="M376.51,376.81c-.19,0-.35-3.44-.35-7.67s.16-7.68.35-7.68.36,3.44.36,7.68S376.71,376.81,376.51,376.81Z" transform="translate(-11.48 -32.1)"/><path id="elnzskmp8tala" class="cls-3" d="M386.36,361.23c0,.2-19.16.36-42.79.36s-42.79-.16-42.79-.36,19.16-.35,42.79-.35S386.36,361,386.36,361.23Z" transform="translate(-11.48 -32.1)"/><rect id="el7ljspy2iw0w" class="cls-7" x="284.12" y="344.85" width="85.19" height="15.47"/><path id="eloa5a7amyzqo" class="cls-3" d="M304,392.52c-.2,0-.36-3.43-.36-7.67s.16-7.67.36-7.67.35,3.43.35,7.67A49,49,0,0,1,304,392.52Z" transform="translate(-11.48 -32.1)"/><path id="eltwtsov1ud0g" class="cls-3" d="M299.29,392.52c-.2,0-.36-3.43-.36-7.67s.16-7.67.36-7.67.35,3.43.35,7.67S299.48,392.52,299.29,392.52Z" transform="translate(-11.48 -32.1)"/><path id="el9en48yn3isn" class="cls-3" d="M314.18,392.52c-.19,0-.35-3.43-.35-7.67s.16-7.67.35-7.67.36,3.43.36,7.67S314.38,392.52,314.18,392.52Z" transform="translate(-11.48 -32.1)"/><path id="elbbw2s4f7qoi" class="cls-3" d="M309.52,392.52c-.19,0-.35-3.43-.35-7.67s.16-7.67.35-7.67.36,3.43.36,7.67S309.72,392.52,309.52,392.52Z" transform="translate(-11.48 -32.1)"/><path id="elz25ublivmpq" class="cls-3" d="M324.42,392.52c-.2,0-.36-3.43-.36-7.67s.16-7.67.36-7.67.35,3.43.35,7.67S324.61,392.52,324.42,392.52Z" transform="translate(-11.48 -32.1)"/><path id="elihzmbu1you" class="cls-3" d="M319.76,392.52c-.2,0-.36-3.43-.36-7.67s.16-7.67.36-7.67.35,3.43.35,7.67S320,392.52,319.76,392.52Z" transform="translate(-11.48 -32.1)"/><path id="eldrs5x4tgqh" class="cls-3" d="M334.65,392.52c-.19,0-.35-3.43-.35-7.67s.16-7.67.35-7.67.36,3.43.36,7.67S334.85,392.52,334.65,392.52Z" transform="translate(-11.48 -32.1)"/><path id="elys2x7w20k6j" class="cls-3" d="M330,392.52c-.19,0-.35-3.43-.35-7.67s.16-7.67.35-7.67.36,3.43.36,7.67S330.19,392.52,330,392.52Z" transform="translate(-11.48 -32.1)"/><path id="elw0rxc40wju" class="cls-3" d="M344.89,392.52c-.2,0-.35-3.43-.35-7.67s.15-7.67.35-7.67.35,3.43.35,7.67S345.09,392.52,344.89,392.52Z" transform="translate(-11.48 -32.1)"/><path id="elfsr21el34qj" class="cls-3" d="M340.23,392.52c-.2,0-.35-3.43-.35-7.67s.15-7.67.35-7.67.36,3.43.36,7.67S340.43,392.52,340.23,392.52Z" transform="translate(-11.48 -32.1)"/><path id="elisetcibxppa" class="cls-3" d="M355.13,392.52c-.2,0-.36-3.43-.36-7.67s.16-7.67.36-7.67.35,3.43.35,7.67S355.32,392.52,355.13,392.52Z" transform="translate(-11.48 -32.1)"/><path id="eljvgtb9axqld" class="cls-3" d="M350.47,392.52c-.2,0-.36-3.43-.36-7.67s.16-7.67.36-7.67.35,3.43.35,7.67S350.66,392.52,350.47,392.52Z" transform="translate(-11.48 -32.1)"/><path id="elbc8b6wgrza" class="cls-3" d="M365.36,392.52c-.19,0-.35-3.43-.35-7.67s.16-7.67.35-7.67.36,3.43.36,7.67S365.56,392.52,365.36,392.52Z" transform="translate(-11.48 -32.1)"/><path id="elb1ste37q6ac" class="cls-3" d="M360.7,392.52c-.19,0-.35-3.43-.35-7.67s.16-7.67.35-7.67.36,3.43.36,7.67S360.9,392.52,360.7,392.52Z" transform="translate(-11.48 -32.1)"/><path id="elssegpaaeiz" class="cls-3" d="M375.6,392.52c-.2,0-.36-3.43-.36-7.67s.16-7.67.36-7.67.35,3.43.35,7.67S375.79,392.52,375.6,392.52Z" transform="translate(-11.48 -32.1)"/><path id="el8hzc7l5xsu6" class="cls-3" d="M370.94,392.52c-.2,0-.36-3.43-.36-7.67s.16-7.67.36-7.67.35,3.43.35,7.67S371.13,392.52,370.94,392.52Z" transform="translate(-11.48 -32.1)"/><path id="elljthbhuo6e" class="cls-3" d="M380.79,377c0,.19-19.16.35-42.79.35s-42.8-.16-42.8-.35,19.16-.36,42.8-.36S380.79,376.75,380.79,377Z" transform="translate(-11.48 -32.1)"/><rect id="el6zhvjamd22w" class="cls-7" x="291.08" y="360.42" width="85.19" height="15.47"/><path id="elujh0f35cbyg" class="cls-3" d="M310.91,408.1c-.2,0-.36-3.44-.36-7.67s.16-7.68.36-7.68.35,3.44.35,7.68S311.1,408.1,310.91,408.1Z" transform="translate(-11.48 -32.1)"/><path id="elgm93luqq89k" class="cls-3" d="M306.25,408.1c-.2,0-.36-3.44-.36-7.67s.16-7.68.36-7.68.35,3.44.35,7.68S306.45,408.1,306.25,408.1Z" transform="translate(-11.48 -32.1)"/><path id="el0qhd1jldhsk" class="cls-3" d="M321.14,408.1c-.19,0-.35-3.44-.35-7.67s.16-7.68.35-7.68.36,3.44.36,7.68S321.34,408.1,321.14,408.1Z" transform="translate(-11.48 -32.1)"/><path id="ela12ufunsgh8" class="cls-3" d="M316.49,408.1c-.2,0-.36-3.44-.36-7.67s.16-7.68.36-7.68.35,3.44.35,7.68S316.68,408.1,316.49,408.1Z" transform="translate(-11.48 -32.1)"/><path id="el0gdulmys9a4" class="cls-3" d="M331.38,408.1c-.2,0-.35-3.44-.35-7.67s.15-7.68.35-7.68.35,3.44.35,7.68S331.58,408.1,331.38,408.1Z" transform="translate(-11.48 -32.1)"/><path id="elofpuhopozo" class="cls-3" d="M326.72,408.1c-.2,0-.35-3.44-.35-7.67s.15-7.68.35-7.68.36,3.44.36,7.68S326.92,408.1,326.72,408.1Z" transform="translate(-11.48 -32.1)"/><path id="elfzfip56nqfv" class="cls-3" d="M341.62,408.1c-.2,0-.36-3.44-.36-7.67s.16-7.68.36-7.68.35,3.44.35,7.68S341.81,408.1,341.62,408.1Z" transform="translate(-11.48 -32.1)"/><path id="el3ga7804prgq" class="cls-3" d="M337,408.1c-.2,0-.36-3.44-.36-7.67s.16-7.68.36-7.68.35,3.44.35,7.68A47.59,47.59,0,0,1,337,408.1Z" transform="translate(-11.48 -32.1)"/><path id="elqsh2kfvgsbc" class="cls-3" d="M351.85,408.1c-.19,0-.35-3.44-.35-7.67s.16-7.68.35-7.68.36,3.44.36,7.68S352.05,408.1,351.85,408.1Z" transform="translate(-11.48 -32.1)"/><path id="elejuj2otv17e" class="cls-3" d="M347.19,408.1c-.19,0-.35-3.44-.35-7.67s.16-7.68.35-7.68.36,3.44.36,7.68S347.39,408.1,347.19,408.1Z" transform="translate(-11.48 -32.1)"/><path id="el0ntbdscvjm" class="cls-3" d="M362.09,408.1c-.2,0-.36-3.44-.36-7.67s.16-7.68.36-7.68.35,3.44.35,7.68S362.28,408.1,362.09,408.1Z" transform="translate(-11.48 -32.1)"/><path id="eld4ve24vc8gg" class="cls-3" d="M357.43,408.1c-.2,0-.36-3.44-.36-7.67s.16-7.68.36-7.68.35,3.44.35,7.68S357.62,408.1,357.43,408.1Z" transform="translate(-11.48 -32.1)"/><path id="el8blytqk2gsc" class="cls-3" d="M372.32,408.1c-.19,0-.35-3.44-.35-7.67s.16-7.68.35-7.68.36,3.44.36,7.68S372.52,408.1,372.32,408.1Z" transform="translate(-11.48 -32.1)"/><path id="elo24blc4jydk" class="cls-3" d="M367.66,408.1c-.19,0-.35-3.44-.35-7.67s.16-7.68.35-7.68.36,3.44.36,7.68S367.86,408.1,367.66,408.1Z" transform="translate(-11.48 -32.1)"/><path id="el56b1gym99e3" class="cls-3" d="M382.56,408.1c-.2,0-.36-3.44-.36-7.67s.16-7.68.36-7.68.35,3.44.35,7.68S382.75,408.1,382.56,408.1Z" transform="translate(-11.48 -32.1)"/><path id="ely0n5ztaqxe" class="cls-3" d="M377.9,408.1c-.2,0-.36-3.44-.36-7.67s.16-7.68.36-7.68.35,3.44.35,7.68S378.09,408.1,377.9,408.1Z" transform="translate(-11.48 -32.1)"/><path id="el9f2jcifte0n" class="cls-3" d="M387.75,392.52c0,.2-19.21.36-42.89.36s-42.9-.16-42.9-.36,19.2-.35,42.9-.35S387.75,392.33,387.75,392.52Z" transform="translate(-11.48 -32.1)"/><rect id="elj9y7m1gqcw" class="cls-7" x="284.4" y="375.77" width="85.19" height="15.47"/><path id="elzsgd0fv3seb" class="cls-3" d="M304.23,423.45c-.19,0-.35-3.44-.35-7.68s.16-7.67.35-7.67.36,3.43.36,7.67S304.43,423.45,304.23,423.45Z" transform="translate(-11.48 -32.1)"/><path id="elurhizam06he" class="cls-3" d="M299.57,423.45c-.19,0-.35-3.44-.35-7.68s.16-7.67.35-7.67.36,3.43.36,7.67S299.77,423.45,299.57,423.45Z" transform="translate(-11.48 -32.1)"/><path id="elrbuaadvi51g" class="cls-3" d="M314.47,423.45c-.2,0-.36-3.44-.36-7.68s.16-7.67.36-7.67.35,3.43.35,7.67S314.66,423.45,314.47,423.45Z" transform="translate(-11.48 -32.1)"/><path id="el9suk1ia3qjq" class="cls-3" d="M309.81,423.45c-.2,0-.36-3.44-.36-7.68s.16-7.67.36-7.67.35,3.43.35,7.67S310,423.45,309.81,423.45Z" transform="translate(-11.48 -32.1)"/><path id="el40qkotevqvl" class="cls-3" d="M324.7,423.45c-.19,0-.35-3.44-.35-7.68s.16-7.67.35-7.67.36,3.43.36,7.67S324.9,423.45,324.7,423.45Z" transform="translate(-11.48 -32.1)"/><path id="elp9pqc7kxfw" class="cls-3" d="M320,423.45c-.19,0-.35-3.44-.35-7.68s.16-7.67.35-7.67.36,3.43.36,7.67S320.24,423.45,320,423.45Z" transform="translate(-11.48 -32.1)"/><path id="elvc21lnrtfnm" class="cls-3" d="M334.94,423.45c-.2,0-.36-3.44-.36-7.68s.16-7.67.36-7.67.35,3.43.35,7.67S335.13,423.45,334.94,423.45Z" transform="translate(-11.48 -32.1)"/><path id="eld5wudapg7bo" class="cls-3" d="M330.28,423.45c-.2,0-.36-3.44-.36-7.68s.16-7.67.36-7.67.35,3.43.35,7.67S330.47,423.45,330.28,423.45Z" transform="translate(-11.48 -32.1)"/><path id="elh7763fs2jsn" class="cls-3" d="M345.17,423.45c-.19,0-.35-3.44-.35-7.68s.16-7.67.35-7.67.36,3.43.36,7.67S345.37,423.45,345.17,423.45Z" transform="translate(-11.48 -32.1)"/><path id="elluqb4twy5rd" class="cls-3" d="M340.51,423.45c-.19,0-.35-3.44-.35-7.68s.16-7.67.35-7.67.36,3.43.36,7.67S340.71,423.45,340.51,423.45Z" transform="translate(-11.48 -32.1)"/><path id="el3kdi8rwt8k" class="cls-3" d="M355.41,423.45c-.2,0-.36-3.44-.36-7.68s.16-7.67.36-7.67.35,3.43.35,7.67S355.61,423.45,355.41,423.45Z" transform="translate(-11.48 -32.1)"/><path id="elk3yq904snv" class="cls-3" d="M350.75,423.45c-.2,0-.35-3.44-.35-7.68s.15-7.67.35-7.67.35,3.43.35,7.67S351,423.45,350.75,423.45Z" transform="translate(-11.48 -32.1)"/><path id="ela01dfw5kpuq" class="cls-3" d="M365.64,423.45c-.19,0-.35-3.44-.35-7.68s.16-7.67.35-7.67.36,3.43.36,7.67S365.84,423.45,365.64,423.45Z" transform="translate(-11.48 -32.1)"/><path id="elbx6uhcp1inp" class="cls-3" d="M361,423.45c-.2,0-.36-3.44-.36-7.68s.16-7.67.36-7.67.35,3.43.35,7.67S361.18,423.45,361,423.45Z" transform="translate(-11.48 -32.1)"/><path id="elwxybxqiz3b" class="cls-3" d="M375.88,423.45c-.2,0-.35-3.44-.35-7.68s.15-7.67.35-7.67.36,3.43.36,7.67S376.08,423.45,375.88,423.45Z" transform="translate(-11.48 -32.1)"/><path id="elgnay2sc6ckq" class="cls-3" d="M371.22,423.45c-.19,0-.35-3.44-.35-7.68s.16-7.67.35-7.67.36,3.43.36,7.67S371.42,423.45,371.22,423.45Z" transform="translate(-11.48 -32.1)"/><path id="elrmwcrnp4ss8" class="cls-3" d="M381.07,407.87c0,.2-19.16.35-42.79.35s-42.79-.15-42.79-.35,19.15-.35,42.79-.35S381.07,407.67,381.07,407.87Z" transform="translate(-11.48 -32.1)"/><rect id="elestl0g5xibj" class="cls-7" x="292.94" y="391.46" width="85.19" height="15.47"/><path id="elkkydxb0ch8b" class="cls-3" d="M312.77,439.14c-.2,0-.36-3.44-.36-7.68s.16-7.67.36-7.67.35,3.44.35,7.67S313,439.14,312.77,439.14Z" transform="translate(-11.48 -32.1)"/><path id="el20f38ybnhgv" class="cls-3" d="M308.11,439.14c-.2,0-.36-3.44-.36-7.68s.16-7.67.36-7.67.35,3.44.35,7.67S308.3,439.14,308.11,439.14Z" transform="translate(-11.48 -32.1)"/><path id="els1v4malalie" class="cls-3" d="M323,439.14c-.19,0-.35-3.44-.35-7.68s.16-7.67.35-7.67.36,3.44.36,7.67S323.2,439.14,323,439.14Z" transform="translate(-11.48 -32.1)"/><path id="elbd55rykoed" class="cls-3" d="M318.34,439.14c-.19,0-.35-3.44-.35-7.68s.16-7.67.35-7.67.36,3.44.36,7.67S318.54,439.14,318.34,439.14Z" transform="translate(-11.48 -32.1)"/><path id="elid9ttg96ob" class="cls-3" d="M333.24,439.14c-.2,0-.35-3.44-.35-7.68s.15-7.67.35-7.67.35,3.44.35,7.67S333.44,439.14,333.24,439.14Z" transform="translate(-11.48 -32.1)"/><path id="ela2p6vvt4okw" class="cls-3" d="M328.58,439.14c-.2,0-.35-3.44-.35-7.68s.15-7.67.35-7.67.35,3.44.35,7.67S328.78,439.14,328.58,439.14Z" transform="translate(-11.48 -32.1)"/><path id="elf6rbcf4ro3" class="cls-3" d="M343.48,439.14c-.2,0-.36-3.44-.36-7.68s.16-7.67.36-7.67.35,3.44.35,7.67S343.67,439.14,343.48,439.14Z" transform="translate(-11.48 -32.1)"/><path id="el21ubrlj1iru" class="cls-3" d="M338.82,439.14c-.2,0-.36-3.44-.36-7.68s.16-7.67.36-7.67.35,3.44.35,7.67S339,439.14,338.82,439.14Z" transform="translate(-11.48 -32.1)"/><path id="el6koru03zl24" class="cls-3" d="M353.71,439.14c-.19,0-.35-3.44-.35-7.68s.16-7.67.35-7.67.36,3.44.36,7.67S353.91,439.14,353.71,439.14Z" transform="translate(-11.48 -32.1)"/><path id="elnxyuo5sp1p" class="cls-3" d="M349.05,439.14c-.19,0-.35-3.44-.35-7.68s.16-7.67.35-7.67.36,3.44.36,7.67S349.25,439.14,349.05,439.14Z" transform="translate(-11.48 -32.1)"/><path id="eln44zzirkec9" class="cls-3" d="M364,439.14c-.2,0-.36-3.44-.36-7.68s.16-7.67.36-7.67.35,3.44.35,7.67A49.31,49.31,0,0,1,364,439.14Z" transform="translate(-11.48 -32.1)"/><path id="el0qllovha6co" class="cls-3" d="M359.29,439.14c-.2,0-.36-3.44-.36-7.68s.16-7.67.36-7.67.35,3.44.35,7.67S359.48,439.14,359.29,439.14Z" transform="translate(-11.48 -32.1)"/><path id="elsjswngkyqwl" class="cls-3" d="M374.18,439.14c-.19,0-.35-3.44-.35-7.68s.16-7.67.35-7.67.36,3.44.36,7.67S374.38,439.14,374.18,439.14Z" transform="translate(-11.48 -32.1)"/><path id="el8pddgcu17t4" class="cls-3" d="M369.52,439.14c-.19,0-.35-3.44-.35-7.68s.16-7.67.35-7.67.36,3.44.36,7.67S369.72,439.14,369.52,439.14Z" transform="translate(-11.48 -32.1)"/><path id="elvojd6b1f7vl" class="cls-3" d="M384.42,439.14c-.2,0-.36-3.44-.36-7.68s.16-7.67.36-7.67.35,3.44.35,7.67S384.61,439.14,384.42,439.14Z" transform="translate(-11.48 -32.1)"/><path id="el5uuie5nmhg8" class="cls-3" d="M379.76,439.14c-.2,0-.36-3.44-.36-7.68s.16-7.67.36-7.67.35,3.44.35,7.67S380,439.14,379.76,439.14Z" transform="translate(-11.48 -32.1)"/><path id="elym8vx8s1zw" class="cls-3" d="M389.61,423.56c0,.2-19.16.36-42.79.36s-42.79-.16-42.79-.36,19.15-.35,42.79-.35S389.61,423.37,389.61,423.56Z" transform="translate(-11.48 -32.1)"/><rect id="elohi1ejggdzq" class="cls-7" x="287.6" y="407.11" width="85.19" height="15.47"/><path id="elpy5pv18eyzk" class="cls-3" d="M307.43,454.78c-.2,0-.36-3.43-.36-7.67s.16-7.67.36-7.67.35,3.43.35,7.67S307.62,454.78,307.43,454.78Z" transform="translate(-11.48 -32.1)"/><path id="elx2p5ocowcir" class="cls-3" d="M302.77,454.78c-.2,0-.36-3.43-.36-7.67s.16-7.67.36-7.67.35,3.43.35,7.67S303,454.78,302.77,454.78Z" transform="translate(-11.48 -32.1)"/><path id="eln19x5vyrctb" class="cls-3" d="M317.66,454.78c-.19,0-.35-3.43-.35-7.67s.16-7.67.35-7.67.36,3.43.36,7.67S317.86,454.78,317.66,454.78Z" transform="translate(-11.48 -32.1)"/><path id="eli6updhj4mzp" class="cls-3" d="M313,454.78c-.19,0-.35-3.43-.35-7.67s.16-7.67.35-7.67.36,3.43.36,7.67S313.2,454.78,313,454.78Z" transform="translate(-11.48 -32.1)"/><path id="elz8p7gp86xo" class="cls-3" d="M327.9,454.78c-.2,0-.36-3.43-.36-7.67s.16-7.67.36-7.67.35,3.43.35,7.67S328.09,454.78,327.9,454.78Z" transform="translate(-11.48 -32.1)"/><path id="elj5rv93fjt1" class="cls-3" d="M323.24,454.78c-.2,0-.36-3.43-.36-7.67s.16-7.67.36-7.67.35,3.43.35,7.67S323.43,454.78,323.24,454.78Z" transform="translate(-11.48 -32.1)"/><path id="elec4cna0vgpu" class="cls-3" d="M338.13,454.78c-.19,0-.35-3.43-.35-7.67s.16-7.67.35-7.67.36,3.43.36,7.67S338.33,454.78,338.13,454.78Z" transform="translate(-11.48 -32.1)"/><path id="elo5igna25pg" class="cls-3" d="M333.47,454.78c-.19,0-.35-3.43-.35-7.67s.16-7.67.35-7.67.36,3.43.36,7.67S333.67,454.78,333.47,454.78Z" transform="translate(-11.48 -32.1)"/><path id="elhgcdengp7bm" class="cls-3" d="M348.37,454.78c-.2,0-.36-3.43-.36-7.67s.16-7.67.36-7.67.35,3.43.35,7.67S348.57,454.78,348.37,454.78Z" transform="translate(-11.48 -32.1)"/><path id="el76ysbf6hzjd" class="cls-3" d="M343.71,454.78c-.2,0-.35-3.43-.35-7.67s.15-7.67.35-7.67.35,3.43.35,7.67S343.91,454.78,343.71,454.78Z" transform="translate(-11.48 -32.1)"/><path id="elwimxvuxy02" class="cls-3" d="M358.61,454.78c-.2,0-.36-3.43-.36-7.67s.16-7.67.36-7.67.35,3.43.35,7.67S358.8,454.78,358.61,454.78Z" transform="translate(-11.48 -32.1)"/><path id="elc0atlv0k0eb" class="cls-3" d="M354,454.78c-.2,0-.36-3.43-.36-7.67s.16-7.67.36-7.67.35,3.43.35,7.67A49,49,0,0,1,354,454.78Z" transform="translate(-11.48 -32.1)"/><path id="el0p3k13b0hvdm" class="cls-3" d="M368.84,454.78c-.2,0-.35-3.43-.35-7.67s.15-7.67.35-7.67.36,3.43.36,7.67A45.55,45.55,0,0,1,368.84,454.78Z" transform="translate(-11.48 -32.1)"/><path id="el1ien7656rmvh" class="cls-3" d="M364.18,454.78c-.19,0-.35-3.43-.35-7.67s.16-7.67.35-7.67.36,3.43.36,7.67S364.38,454.78,364.18,454.78Z" transform="translate(-11.48 -32.1)"/><path id="el5awfh9hhuqp" class="cls-3" d="M379.08,454.78c-.2,0-.36-3.43-.36-7.67s.16-7.67.36-7.67.35,3.43.35,7.67S379.27,454.78,379.08,454.78Z" transform="translate(-11.48 -32.1)"/><path id="el8kvpwx12pkj" class="cls-3" d="M374.42,454.78c-.2,0-.36-3.43-.36-7.67s.16-7.67.36-7.67.35,3.43.35,7.67S374.61,454.78,374.42,454.78Z" transform="translate(-11.48 -32.1)"/><path id="eljyulvp0043" class="cls-3" d="M384.27,439.21c0,.19-19.21.35-42.9.35s-42.89-.16-42.89-.35,19.2-.36,42.89-.36S384.27,439,384.27,439.21Z" transform="translate(-11.48 -32.1)"/><rect id="elopzixynf6cr" class="cls-7" x="280.92" y="422.45" width="85.19" height="15.47"/><path id="elilmkcbz1um" class="cls-3" d="M300.75,470.13c-.2,0-.36-3.44-.36-7.67s.16-7.68.36-7.68.35,3.44.35,7.68S301,470.13,300.75,470.13Z" transform="translate(-11.48 -32.1)"/><path id="elft94rkvyt9l" class="cls-3" d="M296.09,470.13c-.2,0-.35-3.44-.35-7.67s.15-7.68.35-7.68.35,3.44.35,7.68S296.29,470.13,296.09,470.13Z" transform="translate(-11.48 -32.1)"/><path id="eleal5p8sduz" class="cls-3" d="M311,470.13c-.19,0-.35-3.44-.35-7.67s.16-7.68.35-7.68.36,3.44.36,7.68S311.18,470.13,311,470.13Z" transform="translate(-11.48 -32.1)"/><path id="elunql4ma1t3" class="cls-3" d="M306.33,470.13c-.2,0-.36-3.44-.36-7.67s.16-7.68.36-7.68.35,3.44.35,7.68S306.52,470.13,306.33,470.13Z" transform="translate(-11.48 -32.1)"/><path id="elmgagiy0nxb" class="cls-3" d="M321.22,470.13c-.2,0-.35-3.44-.35-7.67s.15-7.68.35-7.68.36,3.44.36,7.68S321.42,470.13,321.22,470.13Z" transform="translate(-11.48 -32.1)"/><path id="el1xznrhx1bki" class="cls-3" d="M316.56,470.13c-.19,0-.35-3.44-.35-7.67s.16-7.68.35-7.68.36,3.44.36,7.68S316.76,470.13,316.56,470.13Z" transform="translate(-11.48 -32.1)"/><path id="elirm5s8ovg4" class="cls-3" d="M331.46,470.13c-.2,0-.36-3.44-.36-7.67s.16-7.68.36-7.68.35,3.44.35,7.68S331.65,470.13,331.46,470.13Z" transform="translate(-11.48 -32.1)"/><path id="el7b32azoz3jw" class="cls-3" d="M326.8,470.13c-.2,0-.36-3.44-.36-7.67s.16-7.68.36-7.68.35,3.44.35,7.68S327,470.13,326.8,470.13Z" transform="translate(-11.48 -32.1)"/><path id="elnek2lq6vbv" class="cls-3" d="M341.69,470.13c-.19,0-.35-3.44-.35-7.67s.16-7.68.35-7.68.36,3.44.36,7.68S341.89,470.13,341.69,470.13Z" transform="translate(-11.48 -32.1)"/><path id="el6h50j6m6t4s" class="cls-3" d="M337,470.13c-.19,0-.35-3.44-.35-7.67s.16-7.68.35-7.68.36,3.44.36,7.68S337.23,470.13,337,470.13Z" transform="translate(-11.48 -32.1)"/><path id="el1mhcdy9i48p" class="cls-3" d="M351.93,470.13c-.2,0-.36-3.44-.36-7.67s.16-7.68.36-7.68.35,3.44.35,7.68S352.12,470.13,351.93,470.13Z" transform="translate(-11.48 -32.1)"/><path id="elq0lmdlua1b" class="cls-3" d="M347.27,470.13c-.2,0-.36-3.44-.36-7.67s.16-7.68.36-7.68.35,3.44.35,7.68S347.46,470.13,347.27,470.13Z" transform="translate(-11.48 -32.1)"/><path id="elwcfykdh6dgd" class="cls-3" d="M362.16,470.13c-.19,0-.35-3.44-.35-7.67s.16-7.68.35-7.68.36,3.44.36,7.68S362.36,470.13,362.16,470.13Z" transform="translate(-11.48 -32.1)"/><path id="el4z6ytv06i2" class="cls-3" d="M357.5,470.13c-.19,0-.35-3.44-.35-7.67s.16-7.68.35-7.68.36,3.44.36,7.68S357.7,470.13,357.5,470.13Z" transform="translate(-11.48 -32.1)"/><path id="elfnq5qxqqvs7" class="cls-3" d="M372.4,470.13c-.2,0-.36-3.44-.36-7.67s.16-7.68.36-7.68.35,3.44.35,7.68S372.59,470.13,372.4,470.13Z" transform="translate(-11.48 -32.1)"/><path id="eln76usx8vkv" class="cls-3" d="M367.74,470.13c-.2,0-.36-3.44-.36-7.67s.16-7.68.36-7.68.35,3.44.35,7.68S367.94,470.13,367.74,470.13Z" transform="translate(-11.48 -32.1)"/><path id="el1ztvjt0am6a" class="cls-3" d="M377.59,454.55c0,.2-19.16.36-42.79.36s-42.79-.16-42.79-.36,19.15-.35,42.79-.35S377.59,454.36,377.59,454.55Z" transform="translate(-11.48 -32.1)"/><g id="elboffqx8xf1"><g class="cls-8"><path id="elb7jwp6e4u4i" d="M302.56,392.52c12.72,3.13,26.28,3.73,39.35,2.87s26.28-2.8,39.38-2.64Z" transform="translate(-11.48 -32.1)"/></g></g><g id="elmatv7xw5s9d"><g class="cls-8"><path id="elb83v7wfgg0q" d="M303.33,377.12c12.72,3.13,26.28,3.74,39.35,2.87s26.27-2.79,39.37-2.64Z" transform="translate(-11.48 -32.1)"/></g></g><g id="elew6sb0wc8sc"><g class="cls-8"><path id="ell9p3s2plw8" d="M307.45,408c12.73,3.12,26.28,3.73,39.36,2.86s26.27-2.79,39.37-2.63Z" transform="translate(-11.48 -32.1)"/></g></g><g id="eldgqj2v5zw2h"><g class="cls-8"><path id="elwctui0ivlf" d="M304.11,423.47c12.73,3.13,26.28,3.73,39.35,2.86s26.28-2.79,39.38-2.63Z" transform="translate(-11.48 -32.1)"/></g></g><g id="elq2n228w50nc"><g class="cls-8"><path id="el6i6y5tm1dhp" d="M305.13,438.85c12.72,3.13,26.28,3.73,39.35,2.86s26.27-2.79,39.37-2.63Z" transform="translate(-11.48 -32.1)"/></g></g><g id="elqxu92p5wxjb"><g class="cls-8"><path id="el96o3if6f1j9" d="M301,454.53c12.72,3.12,26.27,3.73,39.35,2.86s26.27-2.79,39.37-2.63Z" transform="translate(-11.48 -32.1)"/></g></g><path id="elzhcfc0hkrg" class="cls-5" d="M302.74,371.81c-.2,0-.36-1.89-.36-4.23s.16-4.24.36-4.24.35,1.9.35,4.24S302.93,371.81,302.74,371.81Z" transform="translate(-11.48 -32.1)"/><path id="el3h5fgrwv8ek" class="cls-5" d="M297.37,388.34c-.2,0-.36-2-.36-4.54s.16-4.55.36-4.55.35,2,.35,4.55S297.56,388.34,297.37,388.34Z" transform="translate(-11.48 -32.1)"/><path id="elb5e7gpedmk8" class="cls-5" d="M305,404.25c-.19,0-.35-1.8-.35-4s.16-4,.35-4,.36,1.81.36,4S305.21,404.25,305,404.25Z" transform="translate(-11.48 -32.1)"/><path id="elnrwri9drgb" class="cls-5" d="M297.16,418.92c-.2,0-.35-1.62-.35-3.61s.15-3.62.35-3.62.35,1.62.35,3.62S297.36,418.92,297.16,418.92Z" transform="translate(-11.48 -32.1)"/><path id="elmx72v8cwpwc" class="cls-5" d="M328.36,378.22c0,.2-6.29.35-14.05.35s-14.05-.15-14.05-.35,6.29-.36,14.05-.36S328.36,378,328.36,378.22Z" transform="translate(-11.48 -32.1)"/><path id="el7s0jr5erja6" class="cls-5" d="M337.45,363.34c0,.2-6.34.36-14.15.36s-14.16-.16-14.16-.36,6.34-.35,14.16-.35S337.45,363.15,337.45,363.34Z" transform="translate(-11.48 -32.1)"/><path id="elqxxjlzzrtm" class="cls-5" d="M351.09,363.55c0,.2-2.09.35-4.65.35s-4.65-.15-4.65-.35,2.08-.35,4.65-.35S351.09,363.35,351.09,363.55Z" transform="translate(-11.48 -32.1)"/><path id="elllxwybyrzop" class="cls-5" d="M305.63,438.47a66.77,66.77,0,0,1,0-11.83A66.77,66.77,0,0,1,305.63,438.47Z" transform="translate(-11.48 -32.1)"/><path id="el8g9jrul2bpn" class="cls-5" d="M370.36,421.73c0,.15-15.49.26-34.59.26s-34.6-.11-34.6-.26,15.49-.26,34.6-.26S370.36,421.59,370.36,421.73Z" transform="translate(-11.48 -32.1)"/><path id="elieyghs83vu" class="cls-5" d="M356.52,453c0,.15-12.24.26-27.34.26s-27.34-.11-27.34-.26,12.24-.26,27.34-.26S356.52,452.84,356.52,453Z" transform="translate(-11.48 -32.1)"/><path id="eludycy0c4hg" class="cls-5" d="M293.58,467a21.44,21.44,0,0,1,0-6.69A21.44,21.44,0,0,1,293.58,467Z" transform="translate(-11.48 -32.1)"/><path id="el55tn4e5po1s" class="cls-5" d="M353.85,468.38c0,.15-12.7.26-28.35.26s-28.35-.11-28.35-.26,12.69-.26,28.35-.26S353.85,468.24,353.85,468.38Z" transform="translate(-11.48 -32.1)"/><path id="elnfksr2etlqs" class="cls-3" d="M292.4,470a1.31,1.31,0,0,1,0-.28v-3.94c0-2.76-.06-6.65-.09-11.39v-.2h6.28l-.23.23V438.71h5.89L304,439V423.28l.23.24h-8.43v-.2c0-4.7.07-8.56.09-11.29,0-1.3,0-2.34.05-3.1v-.8a.15.15,0,0,1-.11-.17.14.14,0,0,1,.17-.1.14.14,0,0,1,.11.16.15.15,0,0,1-.11.11v.8c0,.76,0,1.8.06,3.1,0,2.73.05,6.59.09,11.29l-.21-.2h8.47v16.19h-5.89l.26-.26v15.68h-.23l-6.08-.09.21-.21c0,4.74-.07,8.63-.09,11.39,0,1.32,0,2.36-.06,3.13v.81A.9.9,0,0,1,292.4,470Z" transform="translate(-11.48 -32.1)"/><g id="elzs293ez6wlh"><g class="cls-8"><path id="elig17t4a5jk" d="M385.2,359.9,318,361a107.57,107.57,0,0,0,50.2,15.6c-1.23,23.12,9.65,45.19,11.53,68.26a8.62,8.62,0,0,0,.67,3.24,2.76,2.76,0,0,0,2.64,1.64c1.77-.25,2.34-2.49,2.49-4.27A489.09,489.09,0,0,0,385.2,359.9Z" transform="translate(-11.48 -32.1)"/></g></g><path id="eli2s9gw7xf0q" class="cls-3" d="M314.19,170.19A10,10,0,0,1,310.91,160a1.34,1.34,0,0,0-.73-2,7.42,7.42,0,0,1-3.42-4.72,5.75,5.75,0,0,1,1.79-5.45c-2.85-1.19-3.86-5.18-2.34-7.88a7.74,7.74,0,0,1,8-3.42,4.41,4.41,0,0,1,.94-5.17,8.74,8.74,0,0,1,5.11-2.16c2.51-.32,5.48.14,6.79,2.31.22-1.54,1.83-2.5,3.35-2.79a8.49,8.49,0,0,1,9.48,6.17,7.67,7.67,0,0,1,4.44-1.52,3.63,3.63,0,0,1,3.49,2.72c.74-1.39,2.49-1.88,4.05-1.94a5.64,5.64,0,0,1,3.27.71,2.76,2.76,0,0,1,1.32,2.9,4.57,4.57,0,0,1,5.42,2.52,4.63,4.63,0,0,1-2,5.65,5.65,5.65,0,0,1-.13,9.62,1.55,1.55,0,0,1,1,1.94,2.41,2.41,0,0,1-.15.33,3,3,0,0,1-2.43,1.29c.2,3.3.39,6.59.59,9.88a20.57,20.57,0,0,1-.28,6.36,6.86,6.86,0,0,1-3.84,4.79" transform="translate(-11.48 -32.1)"/><path id="elnltbxd7rqr" class="cls-10" d="M313.68,160.68c-.06-8,7.92-16.55,15.88-16.27l25.94,3.07.22,4.29L355,210.32l-24.64,15.09L328.94,201s-10.24-1-13.26-14.09C314.17,180.4,313.74,169.56,313.68,160.68Z" transform="translate(-11.48 -32.1)"/><path id="el0a457rocxdsn" class="cls-3" d="M316.65,170.68a1.7,1.7,0,0,0,1.75,1.6,1.63,1.63,0,0,0,1.64-1.62v0a1.7,1.7,0,0,0-1.75-1.6,1.63,1.63,0,0,0-1.64,1.62Z" transform="translate(-11.48 -32.1)"/><path id="elzuqk6e0uulk" class="cls-3" d="M316.41,166.14c.22.21,1.44-.84,3.26-1s3.23.69,3.41.45-.15-.49-.77-.87a4.61,4.61,0,0,0-2.74-.64,4.45,4.45,0,0,0-2.58,1C316.46,165.63,316.3,166.05,316.41,166.14Z" transform="translate(-11.48 -32.1)"/><path id="el2kjs2fh1djp" class="cls-3" d="M334,170.68a1.7,1.7,0,0,0,1.75,1.6,1.63,1.63,0,0,0,1.64-1.62v0a1.7,1.7,0,0,0-1.75-1.6,1.63,1.63,0,0,0-1.64,1.62Z" transform="translate(-11.48 -32.1)"/><path id="el8bxpsl8pn1j" class="cls-3" d="M334.33,165.6c.22.21,1.44-.83,3.26-1s3.22.7,3.41.46-.15-.49-.77-.88a4.7,4.7,0,0,0-2.74-.64,4.45,4.45,0,0,0-2.58,1C334.38,165.1,334.22,165.51,334.33,165.6Z" transform="translate(-11.48 -32.1)"/><path id="els8iqnipu9e7" class="cls-3" d="M328.68,179.25a12.1,12.1,0,0,0-3-.32c-.47,0-.92-.08-1-.39a2.45,2.45,0,0,1,.21-1.41c.36-1.16.74-2.38,1.13-3.66,1.56-5.2,2.65-9.47,2.44-9.53s-1.64,4.11-3.2,9.31c-.37,1.29-.73,2.51-1.07,3.68a2.87,2.87,0,0,0-.11,1.85,1.2,1.2,0,0,0,.81.63,3.05,3.05,0,0,0,.8.05A11.53,11.53,0,0,0,328.68,179.25Z" transform="translate(-11.48 -32.1)"/><path id="elltb8e7qw6p" class="cls-11" d="M328.94,201a33.66,33.66,0,0,0,17.36-6s-3.82,10.28-17.13,10Z" transform="translate(-11.48 -32.1)"/><path id="elj99ycpp85q" class="cls-11" d="M329.76,183.61a3.28,3.28,0,0,1,2.86-1.43,3,3,0,0,1,2.15,1,1.93,1.93,0,0,1,.3,2.17,2.2,2.2,0,0,1-2.35.77,6.73,6.73,0,0,1-2.43-1.23,1.92,1.92,0,0,1-.56-.5.64.64,0,0,1,0-.68" transform="translate(-11.48 -32.1)"/><path id="eljfxn8fot21" class="cls-3" d="M334.14,180.14c-.3,0-.17,2-1.76,3.52s-3.72,1.46-3.71,1.74c0,.13.49.36,1.39.32a5,5,0,0,0,3.1-1.34,4.35,4.35,0,0,0,1.35-2.95C334.53,180.6,334.27,180.12,334.14,180.14Z" transform="translate(-11.48 -32.1)"/><path id="eltesi14eya1" class="cls-3" d="M333.32,159.1c.21.49,2,.12,4.17.23s3.93.57,4.18.1c.11-.22-.22-.67-.95-1.1a7.25,7.25,0,0,0-6.36-.25C333.59,158.45,333.23,158.87,333.32,159.1Z" transform="translate(-11.48 -32.1)"/><path id="elopowh8q4239" class="cls-3" d="M316.71,160.79c.35.4,1.57-.12,3.08-.25s2.81.08,3.07-.38c.12-.22-.11-.62-.7-1a4.42,4.42,0,0,0-5,.51C316.7,160.16,316.55,160.6,316.71,160.79Z" transform="translate(-11.48 -32.1)"/><path id="elyz5o91kgj2o" class="cls-3" d="M318.05,145a6.68,6.68,0,0,0,2.31,6.88,6.58,6.58,0,0,0,7.22.37,2.5,2.5,0,0,0,.3,3.3,4.7,4.7,0,0,0,3.37,1.13,8.89,8.89,0,0,0,6.71-3.21,6.52,6.52,0,0,0,7.65,5.13,6.36,6.36,0,0,0,1.92-.71,6,6,0,1,0,10.29,5,6.73,6.73,0,0,0,2.88-9.07,6.54,6.54,0,0,0-1-1.42,4,4,0,0,0,2.32-3.26,8.13,8.13,0,0,0-.71-4.1,12.8,12.8,0,0,0-6.87-7.26,8.54,8.54,0,0,0-9.41,2,1.94,1.94,0,0,1-.89.71c-.51.13-1-.26-1.38-.61-1.73-1.59-3.53-3.31-5.83-3.77a6.28,6.28,0,0,0-6.86,3.74c-1.76-2.61-5.26-4.09-8.21-3s-4.67,5-3.06,7.69" transform="translate(-11.48 -32.1)"/><path id="elxms9s70f9rs" class="cls-3" d="M351.45,165.94a28.52,28.52,0,0,0,2.1,7.8c.45,1.06,1.13,2.21,2.25,2.38a2.44,2.44,0,0,0,2.43-1.59,6.48,6.48,0,0,0,.28-3.09,84.45,84.45,0,0,0-1.92-10.95" transform="translate(-11.48 -32.1)"/><path id="elz2mi79gklj" class="cls-10" d="M354.49,167.84c.15-.09,6.5-2.81,7.08,3.95s-6.29,6-6.32,5.76S354.49,167.84,354.49,167.84Z" transform="translate(-11.48 -32.1)"/><path id="elgxo5gj9xcq" class="cls-11" d="M357.08,174.81a1.87,1.87,0,0,0,.33.15,1.22,1.22,0,0,0,.88-.06,2.91,2.91,0,0,0,1.12-2.73,4,4,0,0,0-.48-1.66,1.36,1.36,0,0,0-1-.83.6.6,0,0,0-.66.39c-.07.19,0,.33,0,.34s-.16-.1-.13-.38a.73.73,0,0,1,.23-.45.87.87,0,0,1,.63-.23,1.67,1.67,0,0,1,1.32.94,4,4,0,0,1,.57,1.85,3.09,3.09,0,0,1-1.46,3.07,1.23,1.23,0,0,1-1.09-.09C357.11,175,357.06,174.83,357.08,174.81Z" transform="translate(-11.48 -32.1)"/><path id="el33vrgjmkxym" class="cls-5" d="M338.2,152.11l-.21.06a6.21,6.21,0,0,1-.62.14,9.14,9.14,0,0,1-2.39.16,6.55,6.55,0,0,1-1.69-.32,4.78,4.78,0,0,1-3.07-2.94,3.72,3.72,0,0,1,0-2.59l.23.18a8.89,8.89,0,0,1-5.26,2,8.42,8.42,0,0,1-3.11-.41,5.35,5.35,0,0,1-1.48-.72,3.14,3.14,0,0,1-1.07-1.32,4.56,4.56,0,0,1-.3-2,13.26,13.26,0,0,1,.25-1.88,6.5,6.5,0,0,1,.58-1.76,2.11,2.11,0,0,1,1.41-1.16l.09.31a5.29,5.29,0,0,1-3.47.1,5.72,5.72,0,0,1-2.69-1.7,4.78,4.78,0,0,1-1.17-2.58,5.66,5.66,0,0,1,2.17-5.2,3.76,3.76,0,0,1,1.08-.58,9.6,9.6,0,0,0-1,.66,5.68,5.68,0,0,0-1.83,2.76,5.57,5.57,0,0,0-.17,2.33,4.51,4.51,0,0,0,1.14,2.42,5.47,5.47,0,0,0,2.56,1.6,5,5,0,0,0,3.27-.12l.1.31a1.86,1.86,0,0,0-1.19,1,6.16,6.16,0,0,0-.54,1.67,6.41,6.41,0,0,0,0,3.63,3.51,3.51,0,0,0,2.34,1.86,8.25,8.25,0,0,0,3,.4,8.61,8.61,0,0,0,5.09-1.91l.47-.39-.24.56a3.36,3.36,0,0,0,0,2.38,4.6,4.6,0,0,0,2.88,2.83,6.57,6.57,0,0,0,1.64.35,10.35,10.35,0,0,0,2.36-.08C337.9,152.15,338.19,152.09,338.2,152.11Z" transform="translate(-11.48 -32.1)"/><path id="el6g3nisrqaqr" class="cls-5" d="M317.16,150.62a1.5,1.5,0,0,1-.43.24,3.67,3.67,0,0,1-1.35.25,3.57,3.57,0,0,1-2-.61,1.7,1.7,0,0,1-.7-1.07,1.28,1.28,0,0,1,.53-1.29l.15.31h-.12a5.33,5.33,0,0,1-4.49-.43,4.17,4.17,0,0,1-1.08-.88c-.22-.24-.32-.4-.3-.41a9.82,9.82,0,0,0,1.5,1.08,5.3,5.3,0,0,0,4.25.31h.11l1.58-.56-1.43.86a1,1,0,0,0-.37,1,1.42,1.42,0,0,0,.56.87,3.35,3.35,0,0,0,1.78.62A6.17,6.17,0,0,0,317.16,150.62Z" transform="translate(-11.48 -32.1)"/><path id="el3kirhn907za" class="cls-4" d="M361.54,176.45a3,3,0,0,1,1.14.71,7,7,0,0,1,2.12,3,6.27,6.27,0,0,1-.57,5.4,6.1,6.1,0,0,1-6,2.79,5.52,5.52,0,0,1-3.19-1.56,7.14,7.14,0,0,1-1.78-2.77,6.35,6.35,0,0,1,.43-5.41,5.52,5.52,0,0,1,2.83-2.34,2.66,2.66,0,0,1,1.33-.22c0,.07-.47.11-1.23.47a5.58,5.58,0,0,0-2.52,2.33,5.92,5.92,0,0,0-.25,5,5.76,5.76,0,0,0,4.47,3.87,5.51,5.51,0,0,0,5.33-2.45,5.88,5.88,0,0,0,.65-4.92,7.25,7.25,0,0,0-1.85-2.95C361.91,176.76,361.51,176.5,361.54,176.45Z" transform="translate(-11.48 -32.1)"/><path id="eloe0i4z2edak" class="cls-3" d="M323.71,174.52a15.58,15.58,0,0,0-.18-1.92,7.76,7.76,0,0,0-9.07-6.18c-.25.05-.5.11-.74.18A7.93,7.93,0,0,0,310,169a7.67,7.67,0,0,0-.6,9.1,6.79,6.79,0,0,0,1.51,1.74,7.35,7.35,0,0,0,1.88,1.18,7.73,7.73,0,0,0,7.38-.61,7.85,7.85,0,0,0,3.13-4,13.46,13.46,0,0,0,.43-1.88,6.73,6.73,0,0,1-.12,1.1,4.36,4.36,0,0,1-.2.81,7.8,7.8,0,0,1-3.13,4.2,7.89,7.89,0,0,1-7.6.68,7.68,7.68,0,0,1-2-1.21,7.2,7.2,0,0,1-1.58-1.81,7.92,7.92,0,0,1,.62-9.43,8,8,0,0,1,3.9-2.53,7.92,7.92,0,0,1,10,6.25,5.71,5.71,0,0,1,.09.82c0,.2,0,.41,0,.61A4.17,4.17,0,0,1,323.71,174.52Z" transform="translate(-11.48 -32.1)"/><path id="eljhdua62bxls" class="cls-3" d="M344,174.51a15.58,15.58,0,0,0-.18-1.92,7.88,7.88,0,0,0-2.58-4.44,7.74,7.74,0,0,0-3.16-1.65,7.75,7.75,0,0,0-7.82,2.53,7.72,7.72,0,0,0,10.17,11.41,7.84,7.84,0,0,0,3.14-4.05,17.61,17.61,0,0,0,.43-1.88,6.73,6.73,0,0,1-.12,1.1,5.64,5.64,0,0,1-.2.81,7.8,7.8,0,0,1-3.13,4.2,7.9,7.9,0,0,1-7.6.68,7.41,7.41,0,0,1-1.95-1.21,7.55,7.55,0,0,1-1.58-1.8,7.94,7.94,0,0,1,.62-9.44,7.33,7.33,0,0,1,1.8-1.58,7.45,7.45,0,0,1,2.09-1,8,8,0,0,1,10,6.3,5.57,5.57,0,0,1,.1.82,3.11,3.11,0,0,1,0,.61A4.36,4.36,0,0,1,344,174.51Z" transform="translate(-11.48 -32.1)"/><path id="el9rhcnc192bm" class="cls-3" d="M328.69,171.84a8.07,8.07,0,0,0-.71-.43,4,4,0,0,0-3.78,0c-.44.25-.67.48-.71.44s.16-.31.6-.62a3.64,3.64,0,0,1,2-.6,3.54,3.54,0,0,1,2,.58C328.53,171.54,328.72,171.83,328.69,171.84Z" transform="translate(-11.48 -32.1)"/><path id="elv3hnlsvsot" class="cls-3" d="M355.17,168.28c0,.08-2.54.71-5.72,1.42a57.29,57.29,0,0,1-5.78,1.13Q349.35,169.27,355.17,168.28Z" transform="translate(-11.48 -32.1)"/><path id="elxwmaw9uy8yn" class="cls-5" d="M314.88,179.69a1.28,1.28,0,0,1-.39,0,5.06,5.06,0,0,1-1-.32,5.7,5.7,0,0,1-2.62-2.33,5.41,5.41,0,0,1-.49-4.46c.09-.23.15-.36.17-.35a11.79,11.79,0,0,0-.19,1.41,5.79,5.79,0,0,0,3.21,5.54C314.35,179.54,314.9,179.63,314.88,179.69Z" transform="translate(-11.48 -32.1)"/><path id="elt84wbchlije" class="cls-5" d="M330.47,178.74a2,2,0,0,1-.3-.35,5.66,5.66,0,0,1-.62-1.1,7.48,7.48,0,0,1,1.16-7.86,5.82,5.82,0,0,1,.91-.88,1.44,1.44,0,0,1,.39-.25,9.65,9.65,0,0,0-1.13,1.26,7.71,7.71,0,0,0-1.13,7.65C330.12,178.18,330.51,178.71,330.47,178.74Z" transform="translate(-11.48 -32.1)"/><path id="el674j5wsm05s" class="cls-5" d="M333,180.37c0,.07-.31,0-.61-.19s-.5-.37-.46-.44.32,0,.61.19S333.05,180.3,333,180.37Z" transform="translate(-11.48 -32.1)"/><path id="el4qi0z72rkjn" class="cls-1" d="M380.33,323c-1.62-8.35-6.8-36.47-6.79-42.15,0-.94,1.46-3.86,1.73-4.76,1.51-5.08,6.77-23.75,5.59-33.59-.95-7.86-7.6-17.93-9.6-23.31-.94-2.53-8.41-5.14-10.91-6.17l-5.3-7.49s1.15,3.48-3.53,6.6a14.24,14.24,0,0,1-8.54,2.26,21.67,21.67,0,0,1-15.59-7.67l-.87.68c-17.12,5.52-16.94,5.55-20.22,6.93-4.24,1.79,9.17,45.21,9.17,45.21s7.92,29.32,3.65,38.41c-2.4,5.11-10.5,13.57-12.55,18.32,0,0-3.56,5-3.63,6.24S324,332.88,340.71,333.8C371.59,335.51,380.33,323,380.33,323Z" transform="translate(-11.48 -32.1)"/><path id="elc7g9fhxajjh" class="cls-3" d="M373.93,269.83a8.67,8.67,0,0,1,.2-1.52c.18-1,.38-2.37.57-4.11a60,60,0,0,0,.37-6.14,67.23,67.23,0,0,0-.4-7.51,66.54,66.54,0,0,0-1.35-7.41,60.42,60.42,0,0,0-1.77-5.89c-.59-1.65-1.11-3-1.5-3.87a8.17,8.17,0,0,1-.55-1.42,8.26,8.26,0,0,1,.73,1.34c.45.87,1,2.18,1.67,3.82A55.41,55.41,0,0,1,375.55,258a53.23,53.23,0,0,1-.48,6.17,41.16,41.16,0,0,1-.74,4.11A10,10,0,0,1,373.93,269.83Z" transform="translate(-11.48 -32.1)"/><path id="elqiplvyv1j7" class="cls-7" d="M355.05,205.49l.05-3.83,4.49,7.33,9.16,3.37c2.87,3.32,12.2,40.65,10.31,46.82l-3.25,36.51,9.28,13.95-16.66,1.78s-3.57-3.53-2.68-12.88c2.26-23.68-.08-50.69-.42-56.67C364.82,232.86,355.05,205.49,355.05,205.49Z" transform="translate(-11.48 -32.1)"/><path id="el3l5dz014sm" class="cls-7" d="M359.59,209s15,4.91,17,7.74c5.36,7.69,37.6,60.34,21.77,76C388,303,373.44,281.32,373.44,281.32Z" transform="translate(-11.48 -32.1)"/><path id="el787m9y1h0dh" class="cls-3" d="M396.42,271.85a8,8,0,0,1-1.37-.24l-3.75-.81c-3.18-.67-7.64-1.61-12.75-2.38l.27-.16c-.5,1.27-1,2.59-1.53,3.93-1.32,3.33-2.56,6.48-3.65,9.25v-.23l5.65,7.05,1.57,2a4.36,4.36,0,0,1,.52.75,5,5,0,0,1-.64-.66c-.43-.51-1-1.15-1.67-1.94l-5.79-6.93-.09-.1v-.13L376.8,272c.53-1.34,1-2.66,1.54-3.93l.08-.19h.2c5.14.8,9.59,1.81,12.76,2.57,1.58.38,2.84.71,3.71.95A8,8,0,0,1,396.42,271.85Z" transform="translate(-11.48 -32.1)"/><path id="elxu72fxq3idc" class="cls-3" d="M381,267.64a9.46,9.46,0,0,1,.15-1.68c.14-1.17.33-2.7.56-4.56a72.25,72.25,0,0,0,.49-15.06A41.39,41.39,0,0,0,378,232c-.84-1.74-1.61-3.11-2.14-4a11.72,11.72,0,0,1-.8-1.48,1.27,1.27,0,0,1,.27.34c.17.23.41.58.7,1,.83,1.29,1.6,2.63,2.3,4a39.17,39.17,0,0,1,4.35,14.51,65.2,65.2,0,0,1-.65,15.16c-.27,1.92-.53,3.47-.72,4.54A12.1,12.1,0,0,1,381,267.64Z" transform="translate(-11.48 -32.1)"/><path id="eldwl58yaw3ld" class="cls-3" d="M367.44,261.38a2.08,2.08,0,0,1,0-.61c0-.45.07-1,.12-1.72.14-1.56.33-3.7.57-6.32s.56-5.86.9-9.37c.17-1.76.36-3.61.55-5.53a19.92,19.92,0,0,0,.15-2.89,5.29,5.29,0,0,0-.79-2.74,3.12,3.12,0,0,0-2.64-1.54l-.95.06.79-.53,4-2.67-.08.34-7.71-13.24c-.92-1.61-1.65-2.91-2.2-3.86l-.57-1a2.48,2.48,0,0,1-.17-.37,1.59,1.59,0,0,1,.25.33l.64,1c.57.94,1.35,2.22,2.32,3.79,2,3.31,4.72,7.87,7.87,13.14l.12.2-.19.14-3.94,2.68-.16-.47a3.63,3.63,0,0,1,3.11,1.76,5.79,5.79,0,0,1,.87,3,20,20,0,0,1-.16,3c-.21,1.91-.4,3.76-.58,5.52-.38,3.51-.73,6.67-1,9.36s-.55,4.74-.73,6.3c-.09.7-.16,1.27-.22,1.71A3.27,3.27,0,0,1,367.44,261.38Z" transform="translate(-11.48 -32.1)"/><path id="els5reppxrk17" class="cls-4" d="M448,398.77l10,21.69s25.09-3.32,27.34.51l-41,21.38-17-33.15Z" transform="translate(-11.48 -32.1)"/><path id="elqywptklw6v" class="cls-2" d="M444.64,425.1a1.9,1.9,0,0,0-.19,2.53,1.82,1.82,0,0,0,2.51.21,2,2,0,0,0,.19-2.68,1.9,1.9,0,0,0-2.64.07" transform="translate(-11.48 -32.1)"/><path id="elcvk68fb893s" class="cls-3" d="M444.34,442.35,443,439.71l40.24-20a3.55,3.55,0,0,1,2.47,1.33Z" transform="translate(-11.48 -32.1)"/><path id="elg46weexu9i" class="cls-3" d="M458.47,420.4c.1.21-.87.82-1.54,2s-.77,2.29-1,2.3-.52-1.31.31-2.7S458.42,420.19,458.47,420.4Z" transform="translate(-11.48 -32.1)"/><path id="elb82e460magb" class="cls-3" d="M463.76,420c.14.18-.56,1-.82,2.18s0,2.22-.2,2.32-.92-1-.57-2.49S463.65,419.8,463.76,420Z" transform="translate(-11.48 -32.1)"/><path id="eluzvi2ygmm9m" class="cls-3" d="M468.89,424c-.16.14-1-.73-1-2.11s.68-2.31.85-2.18-.11,1-.06,2.15S469.08,423.84,468.89,424Z" transform="translate(-11.48 -32.1)"/><path id="elrpyger8ctka" class="cls-3" d="M455.61,415.68c0,.23-1.07.42-2.18,1.08s-1.82,1.48-2,1.36.3-1.28,1.61-2S455.63,415.47,455.61,415.68Z" transform="translate(-11.48 -32.1)"/><path id="elh42u7rln4qw" class="cls-3" d="M454,410.71c.05.09-.69.62-2.09,1.05a10.25,10.25,0,0,1-2.52.44,12.85,12.85,0,0,1-1.52,0,2.62,2.62,0,0,1-.87-.2,1,1,0,0,1-.65-1,1.31,1.31,0,0,1,.66-.92,2.79,2.79,0,0,1,.84-.29,7.83,7.83,0,0,1,1.52-.21,8,8,0,0,1,2.57.28c1.42.41,2.13,1,2.08,1.07s-.85-.28-2.21-.52a9.11,9.11,0,0,0-2.39-.1,9.37,9.37,0,0,0-1.39.23c-.5.11-.87.3-.89.55s0,.13.17.21a2.35,2.35,0,0,0,.64.13,13.5,13.5,0,0,0,1.42.07,13.87,13.87,0,0,0,2.41-.25A17.1,17.1,0,0,1,454,410.71Z" transform="translate(-11.48 -32.1)"/><path id="elb9u90h4s4hf" class="cls-4" d="M408.93,433.63l-1.27,23.87s23.73,8.81,23.93,13.24l-46.27-.3.45-37.28Z" transform="translate(-11.48 -32.1)"/><path id="elblw2jemhu6i" class="cls-2" d="M393.67,455.33a1.92,1.92,0,0,0-1.36,2.16,1.83,1.83,0,0,0,2.12,1.36,2,2,0,0,0,1.43-2.29,1.91,1.91,0,0,0-2.37-1.17" transform="translate(-11.48 -32.1)"/><path id="elypodvoci4f9" class="cls-3" d="M385.32,470.44v-3l44.9,1.2a3.54,3.54,0,0,1,1.56,2.33Z" transform="translate(-11.48 -32.1)"/><path id="elsbs54nf15i9" class="cls-3" d="M408.08,457.66c0,.23-1.15.31-2.29,1s-1.74,1.67-2,1.57.15-1.4,1.54-2.24S408.14,457.45,408.08,457.66Z" transform="translate(-11.48 -32.1)"/><path id="eljjqy23plb7d" class="cls-3" d="M413,459.77c.05.22-.95.59-1.74,1.54s-1,2-1.26,2-.35-1.31.66-2.47S413,459.55,413,459.77Z" transform="translate(-11.48 -32.1)"/><path id="elcvki9s48lwv" class="cls-3" d="M415.63,465.68c-.21.05-.51-1.1.1-2.34s1.68-1.72,1.78-1.52-.58.84-1.07,1.87S415.86,465.66,415.63,465.68Z" transform="translate(-11.48 -32.1)"/><path id="elokklpb3ooq" class="cls-3" d="M407.77,452.15c-.1.2-1.14-.13-2.43-.06s-2.31.45-2.42.25.86-1,2.38-1S407.88,452,407.77,452.15Z" transform="translate(-11.48 -32.1)"/><path id="eltzonfitietl" class="cls-3" d="M408.69,447a4.33,4.33,0,0,1-2.34-.05,10.09,10.09,0,0,1-2.44-.79,13.26,13.26,0,0,1-1.33-.74,2.87,2.87,0,0,1-.69-.56,1,1,0,0,1-.09-1.22,1.27,1.27,0,0,1,1-.5,2.89,2.89,0,0,1,.88.14,8,8,0,0,1,1.44.52,8.36,8.36,0,0,1,2.13,1.45c1.07,1,1.43,1.88,1.35,1.93s-.62-.65-1.71-1.5a9.13,9.13,0,0,0-2.07-1.21,7.68,7.68,0,0,0-1.33-.44c-.5-.14-.92-.15-1.05.07s-.05.12.05.26a2.24,2.24,0,0,0,.51.41,11.71,11.71,0,0,0,1.23.73,13.15,13.15,0,0,0,2.24.91A17.3,17.3,0,0,1,408.69,447Z" transform="translate(-11.48 -32.1)"/><path id="elswzol765ns" class="cls-3" d="M303.13,319s94.74-11.22,100.2-11.22c12.82,0,18.83,9.39,20.75,16.93C425.5,330.29,454,410.9,454,410.9l-21,10.92-31-55-15.78-27.45-81.3,12.56Z" transform="translate(-11.48 -32.1)"/><path id="elijnq2261pe" class="cls-3" d="M390.08,336.82s12.7,0,19.56,10.17c4,6,2.62,16.65,2.7,24.71.11,11-2.54,77.81-2.54,77.81l-26,.44-5.44-69.67.32-12.88-51.89-4.22s-4.72-15.72,6.9-28.13C335.19,333.45,390.08,336.82,390.08,336.82Z" transform="translate(-11.48 -32.1)"/><path id="elfxtmtmi2ebn" class="cls-3" d="M303.16,320.3S295.07,339,306,355c7.22,10.55,21.06,8.13,21.06,8.13l18.38-23-14.67-22.92Z" transform="translate(-11.48 -32.1)"/><path id="elyk6zh9l2hf" class="cls-4" d="M327.05,363.1a2.21,2.21,0,0,1,.34-.18l1-.48,4-1.81,14.75-6.57L369,344.38l12.94-5.7c1.13-.48,2.22-1,3.43-1.45a21.24,21.24,0,0,1,3.69-.94,28,28,0,0,1,7.75-.07,24.54,24.54,0,0,1,7.45,2.12,13.33,13.33,0,0,1,3.21,2.09,12,12,0,0,1,2.35,2.95,16.73,16.73,0,0,1,2.17,6.94c.1,1.21,0,2.36,0,3.52v3.42c-.1,9-.2,17.12-.27,23.94s-.18,12.3-.23,16.14c0,1.88-.07,3.35-.09,4.38v1.15a2.41,2.41,0,0,1,0,.38,1.27,1.27,0,0,1,0-.39v-5.52c0-3.84,0-9.35.07-16.14s.1-14.94.16-23.94v-3.42c0-1.15.06-2.33,0-3.48a16.3,16.3,0,0,0-2.12-6.72,11.22,11.22,0,0,0-2.26-2.82,12.25,12.25,0,0,0-3.08-2,24.12,24.12,0,0,0-7.3-2.07,27.64,27.64,0,0,0-7.6.06,21.36,21.36,0,0,0-3.6.92c-1.16.39-2.28,1-3.4,1.43l-12.95,5.67-21.94,9.58-14.8,6.42c-1.74.73-3.09,1.31-4,1.72l-1.06.43A1.46,1.46,0,0,1,327.05,363.1Z" transform="translate(-11.48 -32.1)"/><path id="elya7jdeausi" class="cls-7" d="M329,202.55l-4.49,4.82-16.68,5.3a296.33,296.33,0,0,0,3.95,36.51c3.67,20.56,5.64,41.52,5.74,41.85.81-1.53-8.38,11.09-13.45,23.48-4,9.74-6.18,30.06-6.18,30.06l42,12.86L347,281.35l-1.86-35.19Z" transform="translate(-11.48 -32.1)"/><g id="elyo98llsqqc"><g class="cls-8"><path id="el7f4ipc1oyx7" d="M310.39,301.49c.59,1.29,2.39,1.74,3.78,1.5,9.95-1.73,24.62-9.24,32.29-15.81.07-.33.55-6.2.55-6.2v-3Z" transform="translate(-11.48 -32.1)"/></g></g><path id="el2gk5m5nyxe" class="cls-7" d="M307.86,212.67a17.65,17.65,0,0,0-9.94,11.71s-1.78,5.5-3.1,11.66c-3.22,15-10.15,43.06-10.43,50.5-.5,13.47,9.63,17.29,15.1,18.47S343,285.4,343,285.4l-6.31-18.94-24.8,6.4s5.3-17.3,6.83-24.38S307.86,212.67,307.86,212.67Z" transform="translate(-11.48 -32.1)"/><path id="elp437nfp3gap" class="cls-3" d="M303.79,304.24l.2-.1.59-.24c.52-.21,1.28-.51,2.27-.93,2-.82,4.83-2.06,8.34-3.72,7-3.31,16.69-8.29,27.65-14.08l-.12.31c-1-3.11-2.12-6.34-3.22-9.65s-2.1-6.28-3.1-9.29l.31.16-25.93,7h0a15.57,15.57,0,0,0-6.57,2.26,24.35,24.35,0,0,0-4.22,3.21,25.57,25.57,0,0,0-2.3,2.47l-.55.69c-.12.15-.19.23-.2.22a18.55,18.55,0,0,1,2.9-3.53,23.74,23.74,0,0,1,4.22-3.32,15.42,15.42,0,0,1,6.69-2.37h0l25.9-7.16.23-.06.08.23,3.1,9.29c1.1,3.3,2.18,6.53,3.21,9.65l.07.2-.19.1c-11,5.77-20.67,10.7-27.75,13.93-3.54,1.62-6.41,2.82-8.41,3.59-1,.39-1.78.67-2.31.85l-.61.2C303.87,304.23,303.8,304.25,303.79,304.24Z" transform="translate(-11.48 -32.1)"/><path id="elx2s89cv98n" class="cls-3" d="M319.62,245.1c.14,0-1.48,6.29-3.63,14s-4,13.85-4.14,13.81,1.49-6.28,3.64-14S319.49,245.06,319.62,245.1Z" transform="translate(-11.48 -32.1)"/><path id="elsw5abtp6z6" class="cls-3" d="M345.15,265a3.11,3.11,0,0,1-.32-.63q-.31-.69-.81-1.83c-.71-1.59-1.73-3.9-3-6.72a240.89,240.89,0,0,0-11.4-21.48l-1.15-1.9-.16-.26.28-.11,4.73-2-.07.43a13.09,13.09,0,0,0-5.25-2.6h-.17v-.17a59,59,0,0,0-1.47-8.34c-.59-2.48-1.09-4.68-1.38-6.52a31.44,31.44,0,0,1-.43-4.33v-1.16a1.34,1.34,0,0,1,0-.4c.06.51.1,1,.11,1.55a36.49,36.49,0,0,0,.56,4.29c.33,1.82.86,4,1.48,6.48a54.37,54.37,0,0,1,1.56,8.39l-.18-.21a13.18,13.18,0,0,1,5.46,2.71l.32.27-.39.16-4.72,2,.12-.38,1.16,1.91a208.76,208.76,0,0,1,11.28,21.59c1.28,2.84,2.26,5.17,2.9,6.79.3.77.54,1.4.73,1.87A3,3,0,0,1,345.15,265Z" transform="translate(-11.48 -32.1)"/><path id="eldm3vnqs8dcc" class="cls-3" d="M310.7,317.17a2.77,2.77,0,0,1-.38.52c-.29.36-.65.83-1.11,1.4l-4.1,5-.11-.3,19.94,3.75-.26.1.31-.44,5.57-7.74.17.39L316.38,318l-4.16-.58-1.12-.17-.4-.09a1.15,1.15,0,0,1,.37,0l1.09.09,4.15.44,14.48,1.67.41.05-.24.34-5.54,7.75-.32.44-.1.14h-.16l-19.91-3.9-.31-.06.21-.24,4.28-5c.48-.54.87-1,1.17-1.32S310.69,317.15,310.7,317.17Z" transform="translate(-11.48 -32.1)"/><path id="elpntcseg162" class="cls-3" d="M318,230c-.09,0-.25-1-.78-2.44a17.89,17.89,0,0,0-7.62-9.31c-1.35-.81-2.27-1.16-2.24-1.25a2,2,0,0,1,.68.17,11.18,11.18,0,0,1,1.74.76,16.1,16.1,0,0,1,7.79,9.5,10,10,0,0,1,.4,1.86C318,229.75,318,230,318,230Z" transform="translate(-11.48 -32.1)"/><g id="elml2ve6smhxl"><g class="cls-8"><polygon id="elbd5bx20204l" points="296.05 292.38 294.73 294.96 313.44 298.98 318.12 289.15 313.41 295.71 296.05 292.38"/></g></g><path id="elruzixq2hqgp" class="cls-10" d="M378.15,267.6a17.22,17.22,0,0,1-.21-6.4,11.69,11.69,0,0,0,.13-3.87c-.24-1.28-1.42-2.62-2.71-2.51l-1.93,9.32Z" transform="translate(-11.48 -32.1)"/><path id="el1q2m1xysgks" class="cls-3" d="M377.25,245.72l-6.84,33-16.2-1,4.8-32.6a1.76,1.76,0,0,1,1.74-1.5h14.79a1.75,1.75,0,0,1,1.75,1.75A2,2,0,0,1,377.25,245.72Z" transform="translate(-11.48 -32.1)"/><path id="el6o4hry4xl5y" class="cls-4" d="M359,254.28a7,7,0,0,0,.25-1l.54-2.67c.22-1.15.48-2.48.77-4a5.23,5.23,0,0,1,.12-.54,1,1,0,0,1,.28-.41,1,1,0,0,1,.46-.24,2.81,2.81,0,0,1,.58,0h2.56c3.5,0,6.68,0,9-.09l2.73-.07a6.73,6.73,0,0,0,1-.07,4.2,4.2,0,0,0-1-.06H362a3.53,3.53,0,0,0-.65,0,1.28,1.28,0,0,0-.6.31,1.37,1.37,0,0,0-.37.55,3.87,3.87,0,0,0-.13.59c-.26,1.48-.49,2.83-.69,4s-.33,2-.44,2.68A5.91,5.91,0,0,0,359,254.28Z" transform="translate(-11.48 -32.1)"/><path id="elvttyuhodo4i" class="cls-12" d="M367.69,247.09a.81.81,0,0,1,1-.48.78.78,0,0,1,.57.64.89.89,0,0,1-.44.82.84.84,0,0,1-.92-.08A.77.77,0,0,1,367.69,247.09Z" transform="translate(-11.48 -32.1)"/><path id="elwe6hh0em5vf" class="cls-10" d="M368.14,257c.37.1,8.95,4.52,8.95,4.52l4.47,4.72a9.14,9.14,0,0,1,.3,7c-1.31,4.26-3.44,5.75-8.37,7l-9.32-1.47-4.7-3.86a2.94,2.94,0,0,1-.94-3.16l.07-.19-.54-.89a1.66,1.66,0,0,1,.08-1.8h0a1.61,1.61,0,0,1,2.26-.34l5.31,3.88,3.65.48.55-1.2-5.35-2.78-6.81-5.26a2,2,0,0,1-.36-2.81l.06-.07h0a2,2,0,0,1,2.54-.43l6.32,3.72,6.6,2.91-1-2.62-7.76-5.74S363.5,255.85,368.14,257Z" transform="translate(-11.48 -32.1)"/><path id="el8kselyuc2tv" class="cls-10" d="M367.32,252.51s-1.79-1-4.76.21-6.75,3.08-6.75,3.08l-5.68,1.63.67-1.41s5.61.57,5.34-3.51l-3.38.15-2.91-1.5-5.71,5.57L342,264.59l-5,3.05,4.45,13.71,8-5,11.13-.22,4.08-3.29.45-4.19,4-4.06s.51-2-1.33-2.24-6.27,4.21-6.27,4.21l-4.44.11s-.77-.7-.14-1.1,13.72-6.82,14.3-8.27,1.17-2.38-.13-2.79a7.27,7.27,0,0,0-3.46.34S368.31,252.83,367.32,252.51Z" transform="translate(-11.48 -32.1)"/><path id="elo8ayyrc6mna" class="cls-11" d="M356.49,260.55a56.31,56.31,0,0,0,5.84-2.72,61.57,61.57,0,0,0,5.68-3,59.36,59.36,0,0,0-5.83,2.72A62.3,62.3,0,0,0,356.49,260.55Z" transform="translate(-11.48 -32.1)"/><path id="elx2o6xoisqac" class="cls-11" d="M353.85,271a2.61,2.61,0,0,0,.67.21c.44.12,1.07.28,1.86.42a12.89,12.89,0,0,0,2.84.19,8.09,8.09,0,0,0,3.37-.93,14.72,14.72,0,0,0,4.71-4.17c.49-.64.87-1.17,1.12-1.54a2.31,2.31,0,0,0,.37-.6s-.65.76-1.68,2a15.87,15.87,0,0,1-4.67,4,8.21,8.21,0,0,1-3.24.92,12.93,12.93,0,0,1-2.78-.12C354.84,271.17,353.86,271,353.85,271Z" transform="translate(-11.48 -32.1)"/></g></svg>