<?xml version="1.0" encoding="UTF-8" standalone="no"?> <svg id="Layer_1" data-name="Layer 1" xmlns="http://www.w3.org/2000/svg" viewBox="0 0 128 128"><defs><style>.cls-1{fill:#fff;}.cls-2{fill:#fff;}</style></defs><title>x</title><path class="cls-1" d="M56.90461,71.04856l.00282.00284.00284.00284a3.07154,3.07154,0,0,0,2.8163.84458c.1739-.038,45.17178-12.70892,48.85027-13.74477a2.49659,2.49659,0,0,0,.52926-.20943,3.1185,3.1185,0,0,0,.22232-5.28428c-.21868-.14426-23.286-10.74355-23.286-10.74355l-.0001-.00024-.00023-.0001S75.44276,18.8491,75.29848,18.63041a3.11848,3.11848,0,0,0-5.28426.22232,2.49829,2.49829,0,0,0-.20945.52926C68.76893,23.06049,56.098,68.05838,56.06,68.23228A3.07148,3.07148,0,0,0,56.90461,71.04856Z"/><path class="cls-1" d="M95.97307,36.37766l.34312-.34312q.08665-.08665.16492-.17818.09159-.07833.1782-.16492l.34312-.34312q.08665-.08665.16492-.1782.09156-.0783.17818-.16492l.34312-.34312q.08665-.08665.16492-.1782.09159-.0783.1782-.16492l.34312-.34312q.08665-.08665.16492-.17818.09159-.0783.1782-.16492l.34312-.34312a3.10556,3.10556,0,0,0-4.39193-4.39193l-.34312.34312q-.08665.08665-.16492.17818-.09159.07833-.1782.16494l-.34312.34311q-.08665.08665-.16492.1782-.09159.0783-.1782.16492l-.34311.34312q-.08667.08665-.16494.1782-.09156.0783-.17818.16492l-.34312.34312q-.08665.08665-.16492.17818-.09159.0783-.1782.16492l-.34312.34312a3.10556,3.10556,0,0,0,4.39193,4.39193Z"/><path class="cls-1" d="M107.18048,16.38641l-.34312.34312q-.08665.08665-.16492.17818-.09159.0783-.1782.16492l-.34312.34312q-.08665.08665-.16492.1782-.09156.0783-.1782.16492l-.34311.34312q-.08665.08665-.16492.1782-.09159.0783-.1782.16492l-.34312.34311q-.08665.08667-.16492.1782-.09159.0783-.1782.16492l-.34312.34312a3.10556,3.10556,0,1,0,4.39193,4.39193l.34312-.34312q.08665-.08665.16492-.1782.09159-.0783.1782-.16492l.34312-.34311q.08665-.08667.16492-.1782.09159-.0783.1782-.16492l.34311-.34312q.08667-.08665.16494-.1782.09156-.0783.17818-.16492l.34312-.34312q.08665-.08665.16492-.17818.09159-.07833.1782-.16492l.34312-.34312a3.10556,3.10556,0,1,0-4.39193-4.39193Z"/><path class="cls-1" d="M124.08374,3.87508a3.10559,3.10559,0,0,0-4.39193,0l-.34312.34312q-.08665.08665-.16492.17818-.09159.0783-.1782.16492l-.34312.34312q-.08665.08665-.16492.1782-.09156.0783-.17818.16492l-.34312.34312q-.08665.08665-.16492.17818-.09159.07833-.1782.16494l-.34312.34311q-.08665.08667-.16492.1782-.09159.0783-.1782.16492l-.34312.34312a3.10556,3.10556,0,0,0,4.39193,4.39193l.34312-.34312q.08665-.08665.16492-.1782.09159-.0783.1782-.16492l.34312-.34311q.08665-.08667.16492-.1782.09159-.0783.1782-.16492l.34311-.34312q.08667-.08665.16494-.1782.09156-.0783.17818-.16492l.34312-.34312q.08665-.08665.16492-.17818.09159-.07833.1782-.16492l.34312-.34312A3.10562,3.10562,0,0,0,124.08374,3.87508Z"/><path class="cls-2" d="M110.347,64.44155l-1.19259.33506c-4.52907,1.275-8.62652,2.4278-12.33781,3.47275q.0724,1.21818.07383,2.45905A39.55906,39.55906,0,1,1,57.33277,31.14794c.78938,0,1.57594.02272,2.354.06815,1.1415-4.052,2.41361-8.56973,3.83054-13.60423.08236-.29248.17605-.57359.28111-.84619A54.32775,54.32775,0,1,0,111.656,70.70842a54.06149,54.06149,0,0,0-.39754-6.57638A8.81328,8.81328,0,0,1,110.347,64.44155Z"/><path class="cls-2" d="M51.08294,61.7951c.88025-3.13485,2.32274-8.26306,4.69375-16.69365A25.65468,25.65468,0,1,0,82.94541,72.15374c-8.334,2.34831-13.45373,3.788-16.61131,4.67673A10.88733,10.88733,0,1,1,51.08294,61.7951Z"/></svg>